<svg width="42" height="42" viewBox="0 0 42 42" fill="none" xmlns="http://www.w3.org/2000/svg">
<rect width="42" height="42" rx="21" fill="#00CE67"/>
<path d="M16.4697 24.4697C16.1768 24.7626 16.1768 25.2374 16.4697 25.5303C16.7626 25.8232 17.2374 25.8232 17.5303 25.5303L17 25L16.4697 24.4697ZM25.75 17C25.75 16.5858 25.4142 16.25 25 16.25L18.25 16.25C17.8358 16.25 17.5 16.5858 17.5 17C17.5 17.4142 17.8358 17.75 18.25 17.75H24.25V23.75C24.25 24.1642 24.5858 24.5 25 24.5C25.4142 24.5 25.75 24.1642 25.75 23.75L25.75 17ZM17 25L17.5303 25.5303L25.5303 17.5303L25 17L24.4697 16.4697L16.4697 24.4697L17 25Z" fill="white"/>
</svg>
