<svg width="65" height="65" viewBox="0 0 65 65" fill="none" xmlns="http://www.w3.org/2000/svg">
<rect width="65" height="65" rx="15" fill="#00CE67"/>
<path d="M44.5124 20.4879C39.8838 15.8465 32.3689 15.836 27.7275 20.4646C23.2489 24.9307 23.0595 32.1241 27.2965 36.8199L26.3902 37.7263C25.6578 36.9939 24.4705 36.9937 23.7381 37.726L23.7379 37.7263L17.5494 43.9148C16.817 44.6471 16.8168 45.8344 17.5491 46.5668L17.5494 46.5671L18.4333 47.4509C19.1656 48.183 20.3526 48.183 21.0849 47.4509L27.2734 41.2625C28.0058 40.5302 28.006 39.3428 27.2736 38.6104L27.2734 38.6102L28.1798 37.7038C33.0431 42.0988 40.5483 41.7191 44.9433 36.8559C49.1885 32.1584 48.9989 24.9556 44.5124 20.4879ZM26.3902 40.378L20.2017 46.5664C19.9576 46.8105 19.5619 46.8105 19.3178 46.5664L18.4339 45.6819C18.1903 45.4379 18.1903 45.0427 18.4339 44.7987L24.6224 38.6102C24.8696 38.3738 25.259 38.3738 25.5063 38.6102L26.3902 39.4947C26.6338 39.7387 26.6338 40.1339 26.3902 40.378ZM43.6291 36.4004C39.4791 40.5503 32.7506 40.5502 28.6007 36.4002C24.4509 32.2502 24.4509 25.5217 28.601 21.3718C32.7509 17.222 39.4792 17.222 43.6291 21.3718C47.7724 25.5247 47.7724 32.2476 43.6291 36.4004Z" fill="white"/>
<path d="M42.7452 22.2559L41.8613 23.1397C45.0294 26.3156 45.0294 31.4564 41.8613 34.6322L42.7452 35.5161C46.4017 31.8522 46.4017 25.9197 42.7452 22.2559Z" fill="white"/>
</svg>
