<svg width="65" height="65" viewBox="0 0 65 65" fill="none" xmlns="http://www.w3.org/2000/svg">
<rect width="65" height="65" rx="15" fill="white"/>
<path d="M32.5082 18C26.7051 17.9992 21.4605 21.4582 19.1764 26.7928L18.9957 26.8527L19.0657 27.063C16.0584 34.4801 19.6332 42.9308 27.0504 45.9381C28.7827 46.6405 30.6345 47.001 32.5039 47C40.512 47.0012 47.0048 40.5103 47.006 32.5022C47.0072 24.4941 40.5163 18.0011 32.5082 18ZM43.8818 39.8107L43.1372 39.0666V37.3333C43.138 37.2585 43.1215 37.1846 43.0889 37.1173L41.2039 33.3526V31.5333C41.2039 31.3718 41.1232 31.2209 40.9888 31.1312L39.5388 30.1645C39.4251 30.0886 39.2847 30.0644 39.1521 30.0978L37.3763 30.5415L34.3937 29.2617L33.9833 26.3868L35.1206 25.25H37.5619L38.3836 26.4849C38.4578 26.596 38.5747 26.6714 38.7065 26.6932L41.6065 27.1766C41.6842 27.1896 41.7638 27.1833 41.8385 27.1582L44.5094 26.2679C46.7496 30.5668 46.51 35.7374 43.8818 39.8107ZM41.8883 22.7628L41.1024 23.2867L38.9114 22.8483L37.4899 22.3751C37.4029 22.3456 37.3093 22.3418 37.2202 22.3645L35.4232 22.8135L34.6354 22.5511L35.2192 21.3833H36.8539C36.9288 21.3834 37.0028 21.3661 37.0699 21.3326L38.7422 20.4964C39.8939 21.0976 40.9534 21.8607 41.8883 22.7628ZM27.2099 20.0459L28.3699 20.8193C28.4269 20.8572 28.4914 20.8826 28.5589 20.8937L30.9011 21.2842L30.6725 21.9682L29.4521 22.3756C29.3428 22.412 29.2501 22.4862 29.1906 22.5849L27.8025 24.8981L25.5729 26.236L22.2862 26.7053C22.048 26.739 21.8708 26.9428 21.8705 27.1833V28.6333C21.8705 28.7615 21.9215 28.8844 22.0121 28.975L22.8372 29.8001V30.6305L20.8265 29.2897L20.0972 27.1016C21.4848 23.931 24.0282 21.408 27.2099 20.0459ZM25.8339 35.893L23.6492 35.4556L22.8372 33.8359V32.7001L24.6381 30.8992L25.3046 32.2327C25.3865 32.3966 25.554 32.5001 25.7372 32.5H28.847L30.1563 34.6823C30.2437 34.8277 30.4009 34.9166 30.5705 34.9167H31.9142L31.5759 36.6117L29.746 38.4416C29.6552 38.5322 29.604 38.6551 29.6039 38.7833V39.9917L27.8639 41.2967C27.7422 41.388 27.6705 41.5312 27.6705 41.6833V43.4291L27.0693 43.23L26.2205 41.1072V36.3667C26.2206 36.137 26.0589 35.9389 25.8339 35.893ZM24.381 43.3231C19.8238 39.9042 17.8966 33.9969 19.5607 28.5483L19.9623 29.7527C19.9962 29.8547 20.063 29.9424 20.1523 30.0021L22.5617 31.6082L22.0121 32.1583C21.9215 32.2489 21.8705 32.3718 21.8705 32.5V33.95C21.8705 34.025 21.8878 34.0989 21.9213 34.166L22.8879 36.0994C22.9549 36.2329 23.0798 36.328 23.2263 36.357L25.2563 36.7625V41.2C25.2562 41.2614 25.2679 41.3223 25.2906 41.3793L26.2573 43.796C26.3102 43.928 26.4186 44.03 26.5535 44.0749L28.0035 44.5582C28.052 44.5746 28.1028 44.5831 28.1539 44.5833C28.4208 44.5833 28.6372 44.3669 28.6372 44.1V41.925L30.3772 40.62C30.4989 40.5287 30.5705 40.3855 30.5705 40.2333V38.9834L32.3622 37.1917C32.4296 37.1242 32.4755 37.0383 32.4942 36.9447L32.9775 34.5281C33.0299 34.2663 32.8601 34.0117 32.5983 33.9594C32.5672 33.9531 32.5356 33.95 32.5039 33.95H30.8441L29.5347 31.7677C29.4474 31.6223 29.2902 31.5334 29.1205 31.5333H26.0359L25.2055 29.8673C25.136 29.7282 25.0038 29.6311 24.8503 29.6063C24.6968 29.5798 24.5402 29.6304 24.4312 29.7416L23.8039 30.3666V29.6C23.8039 29.4718 23.7529 29.3489 23.6622 29.2583L22.8372 28.4332V27.6024L25.8058 27.1785C25.8696 27.1693 25.9309 27.1474 25.9861 27.1142L28.4028 25.6642C28.4706 25.6235 28.5274 25.5667 28.5681 25.4989L29.9262 23.2355L31.2066 22.8082C31.3512 22.7608 31.4646 22.6474 31.5121 22.5027L31.9954 21.0527C32.0791 20.7993 31.9416 20.5259 31.6881 20.4422C31.6647 20.4344 31.6408 20.4285 31.6165 20.4244L28.8189 19.958L28.3274 19.6303C31.3689 18.6403 34.6632 18.7628 37.6228 19.9759L36.7398 20.4167H34.9205C34.7364 20.4156 34.5678 20.5193 34.4855 20.6839L33.5189 22.6173C33.3998 22.8562 33.4969 23.1464 33.7358 23.2655C33.7561 23.2756 33.7771 23.2843 33.7987 23.2915L35.2487 23.7749C35.3357 23.8044 35.4294 23.8082 35.5184 23.7855L37.3154 23.3365L38.632 23.7749C38.6509 23.7816 38.6703 23.7868 38.69 23.7903L41.1067 24.2737C41.2324 24.2993 41.3631 24.2735 41.4697 24.2021L42.5698 23.4684C43.1112 24.0715 43.5977 24.7215 44.0236 25.4109L41.6456 26.2036L39.0709 25.7744L38.2202 24.4984C38.1311 24.3647 37.9812 24.2841 37.8205 24.2833H34.9205C34.7923 24.2833 34.6694 24.3343 34.5788 24.4249L33.1288 25.8749C33.0212 25.9826 32.9705 26.1346 32.992 26.2853L33.4754 29.6686C33.4997 29.8359 33.6097 29.9783 33.7654 30.0442L37.1487 31.4942C37.2456 31.5362 37.3538 31.5448 37.4561 31.5188L39.1821 31.0872L40.2372 31.7919V33.4667C40.2364 33.5415 40.2529 33.6154 40.2855 33.6827L42.1705 37.4474V39.2667C42.1705 39.3949 42.2215 39.5178 42.3121 39.6084L43.3233 40.62C38.839 46.5972 30.3582 47.8075 24.381 43.3231Z" fill="black" stroke="black" stroke-width="0.2"/>
</svg>
