<svg width="75" height="75" viewBox="0 0 75 75" fill="none" xmlns="http://www.w3.org/2000/svg">
<rect width="75" height="75" rx="15" fill="white"/>
<mask id="mask0_7382_909" style="mask-type:luminance" maskUnits="userSpaceOnUse" x="20" y="20" width="36" height="36">
<path d="M20.7695 20.7694H55.3849V55.3848H20.7695V20.7694Z" fill="white"/>
</mask>
<g mask="url(#mask0_7382_909)">
<path d="M28.3005 21.7835C27.7246 21.7835 27.1708 22.0121 26.7634 22.42C26.356 22.8273 26.1279 23.3797 26.1279 23.9559V52.8857C26.1279 53.7058 26.7906 54.3706 27.6106 54.3706H27.6161C28.056 54.3706 28.4742 54.1958 28.7838 53.885C30.223 52.4469 34.4702 48.1997 36.2245 46.4487C36.7133 45.9572 37.3813 45.6807 38.0766 45.6807C38.7718 45.6807 39.4398 45.9572 39.9286 46.4487C41.6883 48.2051 45.9572 52.473 47.3802 53.8981C47.6843 54.2006 48.0916 54.3706 48.5207 54.3706C49.3517 54.3706 50.0252 53.6976 50.0252 52.8673V23.9559C50.0252 23.3797 49.7971 22.8273 49.3897 22.42C48.9823 22.0121 48.4285 21.7835 47.8527 21.7835H28.3005Z" stroke="black" stroke-width="1.6" stroke-miterlimit="10" stroke-linecap="round" stroke-linejoin="round"/>
</g>
</svg>
