<svg width="75" height="75" viewBox="0 0 75 75" fill="none" xmlns="http://www.w3.org/2000/svg">
<rect width="75" height="75" rx="15" fill="white"/>
<mask id="mask0_7382_906" style="mask-type:luminance" maskUnits="userSpaceOnUse" x="17" y="17" width="42" height="42">
<path d="M17.3076 17.3091H58.4614V58.4629H17.3076V17.3091Z" fill="white"/>
</mask>
<g mask="url(#mask0_7382_906)">
<path d="M18.1104 44.4786L22.4869 40.102C22.6533 40.5974 22.9336 41.063 23.3283 41.4577C24.6933 42.8228 26.9065 42.8228 28.2716 41.4577C29.6366 40.0927 29.6366 37.8795 28.2716 36.5144C27.8769 36.1198 27.4113 35.8395 26.9159 35.673L31.2924 31.2965L35.669 35.673C35.8354 35.1776 36.1157 34.712 36.5104 34.3174C37.8753 32.9524 40.0886 32.9524 41.4536 34.3174C42.8186 35.6823 42.8186 37.8956 41.4536 39.2606C41.059 39.6553 40.5933 39.9356 40.0979 40.102L44.4745 44.4786L40.0979 48.8551C39.9314 48.3596 39.6512 47.8941 39.2566 47.4994C37.8915 46.1344 35.6783 46.1344 34.3133 47.4994C32.9482 48.8644 32.9482 51.0776 34.3133 52.4427C34.708 52.8374 35.1735 53.1177 35.669 53.2841L31.2924 57.6606L18.1104 44.4786Z" stroke="black" stroke-width="1.8" stroke-miterlimit="2.613" stroke-linecap="round" stroke-linejoin="round"/>
<path d="M44.476 44.4771L48.5092 40.4439L57.6581 31.295L53.2816 26.9185C53.1151 27.4139 52.8348 27.8795 52.4402 28.2742C51.0751 29.6392 48.8619 29.6392 47.4969 28.2742C46.1318 26.9091 46.1318 24.6959 47.4969 23.3309C47.8915 22.9363 48.3571 22.6559 48.8526 22.4894L44.476 18.113L40.0995 22.4894C39.933 21.9941 39.6527 21.5284 39.2581 21.1338C37.893 19.7688 35.6799 19.7688 34.3148 21.1338C32.9497 22.4988 32.9497 24.7121 34.3148 26.077C34.7095 26.4717 35.175 26.752 35.6705 26.9185L31.2939 31.295" stroke="black" stroke-width="1.8" stroke-miterlimit="2.613" stroke-linecap="round" stroke-linejoin="round"/>
<path d="M51.0671 37.887L51.0664 37.8877" stroke="black" stroke-width="1.8" stroke-miterlimit="2.613" stroke-linecap="round" stroke-linejoin="round"/>
</g>
</svg>
