<svg width="65" height="65" viewBox="0 0 65 65" fill="none" xmlns="http://www.w3.org/2000/svg">
<rect width="65" height="65" rx="15" fill="#00CE67"/>
<path d="M38.2091 28.9241C38.2972 28.9738 38.3977 29 38.4999 29C38.6022 29 38.7026 28.9738 38.7908 28.9241C39.0439 28.7821 44.9965 25.3986 45.8775 21.8102C46.5466 19.6359 44.3509 17.0914 42.299 17.0093C40.6675 16.8948 39.1969 17.9434 38.4999 18.5503C37.8029 17.9428 36.3289 16.89 34.7008 17.0093C32.6484 17.0914 30.4539 19.6359 31.1223 21.8102C32.0033 25.3986 37.9559 28.7821 38.2091 28.9241ZM32.5732 19.6293C34.3649 16.8026 37.0634 18.6293 38.0701 19.6956C38.1257 19.7512 38.1925 19.7954 38.2663 19.8256C38.3402 19.8558 38.4197 19.8714 38.4999 19.8714C38.5802 19.8714 38.6597 19.8558 38.7335 19.8256C38.8074 19.7953 38.8741 19.7511 38.9297 19.6955C39.9 18.6721 42.6232 16.7776 44.4266 19.6294C46.4591 22.9315 39.8518 26.9205 38.5 27.7981C37.1487 26.9244 30.5419 22.9317 32.5732 19.6293Z" fill="white"/>
<path d="M48.8363 30.4716C48.7043 30.1573 48.5048 29.8744 48.2514 29.6421C47.998 29.4097 47.6965 29.2332 47.3674 29.1246C47.0383 29.016 46.6891 28.9777 46.3436 29.0124C45.998 29.0471 45.6641 29.154 45.3644 29.3258L37.7713 34.4786C37.6995 33.7798 37.3595 33.1336 36.8198 32.6704C36.28 32.2072 35.5807 31.9615 34.863 31.9828H27.1081C26.2558 31.9846 25.4259 32.2495 24.7366 32.7398L17.2193 38.4865C17.1145 38.5667 17.0416 38.6802 17.0132 38.8074C16.9848 38.9346 17.0026 39.0674 17.0636 39.1831L21.5516 47.7003C21.5949 47.7804 21.6573 47.8491 21.7336 47.9005C21.8098 47.9519 21.8976 47.9846 21.9895 47.9957C22.0814 48.0069 22.1747 47.9962 22.2615 47.9645C22.3483 47.9328 22.4259 47.8811 22.4879 47.8138C23.3126 46.8999 24.959 45.0706 25.7728 44.1684C26.0711 43.8875 26.464 43.7226 26.8776 43.7047L35.9383 43.2749C36.9061 43.2313 37.8244 42.8441 38.5213 42.1859L48.2437 32.9524C48.5912 32.6486 48.8345 32.2474 48.9406 31.8035C49.0466 31.3596 49.0102 30.8945 48.8363 30.4716ZM22.1838 46.4608L18.2962 39.0822L19.2087 38.3846L23.1716 45.3656L22.1838 46.4608ZM47.458 32.1405L37.7255 41.3836C37.2281 41.8526 36.5728 42.1281 35.8825 42.1583L26.8218 42.5881C26.116 42.6224 25.448 42.9106 24.9464 43.3975L23.9737 44.4761L20.1201 37.6877L25.4246 33.6321C25.915 33.2868 26.5038 33.1009 27.108 33.1005H34.863C35.2192 33.0909 35.57 33.1867 35.8695 33.3753C36.169 33.564 36.4032 33.8368 36.5415 34.158C36.6274 34.3993 36.6517 34.6576 36.6122 34.9102C36.5728 35.1628 36.4707 35.4022 36.315 35.6074C36.1593 35.8127 35.9547 35.9776 35.7189 36.0878C35.4832 36.1979 35.2235 36.2501 34.9624 36.2396H30.4744C30.3242 36.2416 30.1808 36.3013 30.0753 36.4059C29.9698 36.5105 29.9107 36.6515 29.9107 36.7985C29.9107 36.9454 29.9698 37.0864 30.0754 37.191C30.1809 37.2956 30.3242 37.3553 30.4745 37.3573H34.9624C35.4245 37.3578 35.8797 37.2482 36.2889 37.0382C36.6981 36.8282 37.0488 36.5239 37.3109 36.1517L45.99 30.2617C47.2709 29.6063 48.5223 31.2084 47.458 32.1405Z" fill="white"/>
</svg>
