<svg width="65" height="65" viewBox="0 0 65 65" fill="none" xmlns="http://www.w3.org/2000/svg">
<rect width="65" height="65" rx="15" fill="#00CE67"/>
<path d="M35.6941 33.2247C35.0229 33.2317 34.3584 33.0898 33.7485 32.8093C33.1387 32.5287 32.5985 32.1165 32.167 31.6023C31.7323 32.1128 31.1916 32.5224 30.5824 32.8026C29.9733 33.0828 29.3104 33.2268 28.6399 33.2247C27.9686 33.2317 27.3042 33.0898 26.6943 32.8093C26.0844 32.5287 25.5443 32.1165 25.1128 31.6023C24.9827 31.7583 24.8413 31.9045 24.6895 32.0396C24.2146 32.4718 23.6534 32.7983 23.043 32.9978C22.4326 33.1972 21.7868 33.2649 21.1483 33.1965C19.9927 33.0541 18.9303 32.4901 18.1648 31.6127C17.3994 30.7353 16.9847 29.6062 17.0004 28.442V27.4403C16.9993 26.7213 17.1136 26.0067 17.339 25.324L19.5541 18.693C19.7171 18.2006 20.0311 17.772 20.4515 17.4681C20.8719 17.1642 21.3773 17.0004 21.8961 17H42.438C42.9567 17.0004 43.4622 17.1642 43.8826 17.4681C44.303 17.772 44.617 18.2006 44.78 18.693L46.995 25.324C47.2204 26.0067 47.3348 26.7213 47.3336 27.4403V28.442C47.3501 29.6019 46.9394 30.7275 46.1798 31.6042C45.4201 32.481 44.3645 33.0477 43.2139 33.1965C42.5754 33.2667 41.9291 33.1999 41.3184 33.0004C40.7078 32.8009 40.1467 32.4733 39.6727 32.0396C39.5175 31.8985 39.3623 31.7292 39.2213 31.574C38.7886 32.089 38.2489 32.5034 37.6398 32.7885C37.0306 33.0735 36.3667 33.2224 35.6941 33.2247ZM21.8961 19.1163C21.822 19.1174 21.75 19.1409 21.6896 19.1837C21.6292 19.2265 21.5831 19.2866 21.5575 19.3561L19.3565 25.9871C19.2037 26.442 19.1228 26.918 19.1167 27.3979V28.3996C19.096 29.0365 19.3103 29.6588 19.7188 30.1479C20.1272 30.6371 20.7013 30.9589 21.3317 31.052C21.6719 31.0873 22.0158 31.0514 22.3414 30.9468C22.667 30.8421 22.9674 30.671 23.2234 30.4442C23.4794 30.2173 23.6855 29.9398 23.8286 29.6291C23.9717 29.3185 24.0487 28.9815 24.0547 28.6395C24.0547 28.3588 24.1661 28.0897 24.3646 27.8913C24.563 27.6928 24.8322 27.5813 25.1128 27.5813C25.3934 27.5813 25.6626 27.6928 25.861 27.8913C26.0594 28.0897 26.1709 28.3588 26.1709 28.6395C26.1548 28.968 26.2076 29.2962 26.3259 29.6031C26.4443 29.91 26.6256 30.1886 26.8582 30.4212C27.0907 30.6538 27.3694 30.8351 27.6763 30.9534C27.9832 31.0718 28.3114 31.1246 28.6399 31.1085C29.2936 31.1048 29.9194 30.8434 30.3816 30.3812C30.8439 29.919 31.1052 29.2932 31.1089 28.6395C31.1089 28.3588 31.2204 28.0897 31.4188 27.8913C31.6172 27.6928 31.8864 27.5813 32.167 27.5813C32.4477 27.5813 32.7168 27.6928 32.9152 27.8913C33.1137 28.0897 33.2252 28.3588 33.2252 28.6395C33.209 28.968 33.2618 29.2962 33.3802 29.6031C33.4985 29.91 33.6798 30.1886 33.9124 30.4212C34.145 30.6538 34.4237 30.8351 34.7305 30.9534C35.0374 31.0718 35.3656 31.1246 35.6941 31.1085C36.3478 31.1048 36.9737 30.8434 37.4359 30.3812C37.8981 29.919 38.1594 29.2932 38.1631 28.6395C38.1631 28.3588 38.2746 28.0897 38.473 27.8913C38.6715 27.6928 38.9406 27.5813 39.2213 27.5813C39.5019 27.5813 39.771 27.6928 39.9695 27.8913C40.1679 28.0897 40.2794 28.3588 40.2794 28.6395C40.2795 28.985 40.3522 29.3267 40.4927 29.6424C40.6332 29.9581 40.8385 30.2408 41.0951 30.4722C41.3518 30.7036 41.6542 30.8786 41.9827 30.9857C42.3112 31.0929 42.6586 31.1299 43.0023 31.0944C43.6327 31.0012 44.2068 30.6794 44.6153 30.1903C45.0238 29.7011 45.2381 29.0789 45.2174 28.442V27.4403C45.2113 26.9604 45.1304 26.4844 44.9775 26.0294L42.7766 19.3984C42.751 19.329 42.7049 19.2688 42.6445 19.226C42.584 19.1832 42.512 19.1597 42.438 19.1586L21.8961 19.1163Z" fill="white" stroke="#00CE67" stroke-width="0.6"/>
<path d="M43.4536 47.3333H20.8801C20.2264 47.3296 19.6006 47.0683 19.1384 46.6061C18.6761 46.1439 18.4148 45.518 18.4111 44.8643V31.4331C18.4111 31.1524 18.5226 30.8833 18.7211 30.6849C18.9195 30.4864 19.1886 30.3749 19.4693 30.3749C19.7499 30.3749 20.019 30.4864 20.2175 30.6849C20.4159 30.8833 20.5274 31.1524 20.5274 31.4331V44.8643C20.5274 44.9579 20.5646 45.0476 20.6307 45.1137C20.6969 45.1799 20.7866 45.217 20.8801 45.217H43.4536C43.5472 45.217 43.6369 45.1799 43.7031 45.1137C43.7692 45.0476 43.8064 44.9579 43.8064 44.8643V31.419C43.8064 31.1383 43.9178 30.8692 44.1163 30.6708C44.3147 30.4723 44.5839 30.3608 44.8645 30.3608C45.1451 30.3608 45.4143 30.4723 45.6127 30.6708C45.8111 30.8692 45.9226 31.1383 45.9226 31.419V44.8643C45.9189 45.518 45.6576 46.1439 45.1954 46.6061C44.7332 47.0683 44.1073 47.3296 43.4536 47.3333Z" fill="white" stroke="#00CE67" stroke-width="0.6"/>
<path d="M37.105 47.3333H27.229C26.9495 47.3296 26.6825 47.217 26.4849 47.0193C26.2872 46.8217 26.1746 46.5547 26.1709 46.2752V39.2209C26.1746 38.5673 26.4359 37.9414 26.8981 37.4792C27.3604 37.017 27.9862 36.7557 28.6399 36.752H35.6941C36.3478 36.7557 36.9736 37.017 37.4359 37.4792C37.8981 37.9414 38.1594 38.5673 38.1631 39.2209V46.2752C38.1594 46.5547 38.0468 46.8217 37.8491 47.0193C37.6515 47.217 37.3845 47.3296 37.105 47.3333ZM28.2872 45.217H36.0468V39.2209C36.0468 39.1274 36.0097 39.0377 35.9435 38.9715C35.8774 38.9054 35.7877 38.8682 35.6941 38.8682H28.6399C28.5463 38.8682 28.4566 38.9054 28.3905 38.9715C28.3243 39.0377 28.2872 39.1274 28.2872 39.2209V45.217Z" fill="white" stroke="#00CE67" stroke-width="0.6"/>
</svg>
