<svg width="65" height="65" viewBox="0 0 65 65" fill="none" xmlns="http://www.w3.org/2000/svg">
<rect width="65" height="65" rx="15" fill="white"/>
<path d="M44.4951 29.8203C45.4443 29.8203 46.1896 30.8117 46.1896 32.0703V47.1875C46.1896 48.4531 45.4443 49.4375 44.4951 49.4375H41.4084C40.4592 49.4375 39.7139 48.4461 39.7139 47.1875V32.0703C39.7139 30.8047 40.4592 29.8203 41.4084 29.8203H44.4951ZM44.4951 29.2578H41.4084C40.1428 29.2578 39.1514 30.4953 39.1514 32.0703V47.1875C39.1514 48.7695 40.1428 50 41.4084 50H44.4951C45.7607 50 46.7521 48.7625 46.7521 47.1875V32.0703C46.7592 30.4883 45.7607 29.2578 44.4951 29.2578Z" fill="#FF2147" stroke="black"/>
<path d="M45.0859 14.5625C45.1 14.5625 45.1211 14.5695 45.1352 14.5766C45.1633 14.5906 45.1773 14.6117 45.1844 14.6398L46.5344 22.6484C46.5414 22.6977 46.5063 22.7469 46.457 22.7609C46.45 22.7609 46.45 22.7609 46.443 22.7609C46.4289 22.7609 46.4078 22.7539 46.3937 22.7469L44.2844 21.4813C44.0172 21.3195 43.6727 21.4039 43.5109 21.6711C41.4367 25.1094 39.3555 27.5211 36.9859 29.2508C33.9203 31.4867 30.3766 32.5695 26.1508 32.5695C24.1398 32.5695 21.9531 32.3164 19.6398 31.8102C19.5906 31.7961 19.5625 31.7539 19.5695 31.7047C19.5766 31.6555 19.6187 31.6203 19.6609 31.6273H19.668C19.7664 31.6344 20.132 31.6625 20.7156 31.6625C24.0273 31.6625 35.2141 30.7906 40.3117 19.5758C40.4383 19.3016 40.3187 18.9711 40.0445 18.8375L37.8859 17.7828C37.8508 17.7687 37.8297 17.7336 37.8297 17.6984C37.8297 17.6633 37.8508 17.6281 37.8859 17.6141L45.0508 14.5695C45.0648 14.5625 45.0719 14.5625 45.0859 14.5625ZM45.0859 14C45.0016 14 44.9102 14.0211 44.8328 14.0492L37.6609 17.0938C37.3305 17.2344 37.1687 17.6211 37.3094 17.9516C37.3727 18.0992 37.4852 18.2188 37.6328 18.2891L39.7914 19.3438C34.8555 30.2141 24.0695 31.093 20.7086 31.093C20.1461 31.093 19.7945 31.0648 19.7102 31.0648C19.6961 31.0648 19.675 31.0648 19.6609 31.0648C19.2953 31.0648 19.007 31.3531 19 31.7188C19 32.0281 19.218 32.2953 19.5203 32.3656C21.9531 32.893 24.1539 33.1391 26.1508 33.1391C35.6148 33.1391 40.5156 27.725 43.9961 21.9734L46.1055 23.2391C46.4148 23.4219 46.8227 23.3234 47.0055 23.0141C47.0828 22.8805 47.118 22.7258 47.0898 22.5711L45.7328 14.5555C45.6766 14.232 45.4094 14 45.0859 14Z" fill="#FF2147" stroke="black"/>
<path d="M34.5889 35.368C35.5381 35.368 36.2834 36.3594 36.2834 37.618V47.1805C36.2834 48.4461 35.5381 49.4305 34.5889 49.4305H31.5021C30.5529 49.4305 29.8076 48.4391 29.8076 47.1805V37.625C29.8076 36.3594 30.5529 35.375 31.5021 35.375L34.5889 35.368ZM34.5889 34.8125H31.5021C30.2365 34.8125 29.2451 36.05 29.2451 37.625V47.1875C29.2451 48.7695 30.2365 50 31.5021 50H34.5889C35.8545 50 36.8459 48.7625 36.8459 47.1875V37.625C36.8529 36.043 35.8615 34.8125 34.5889 34.8125Z" fill="#FF2147" stroke="black"/>
<path d="M24.9064 39.9944C25.8557 39.9944 26.601 40.9858 26.601 42.2444V47.1874C26.601 48.453 25.8557 49.4374 24.9064 49.4374H21.8127C20.8635 49.4374 20.1182 48.446 20.1182 47.1874V42.2515C20.1182 40.9858 20.8635 40.0015 21.8127 40.0015L24.9064 39.9944ZM24.9064 39.439H21.8127C20.5471 39.439 19.5557 40.6765 19.5557 42.2515V47.1874C19.5557 48.7624 20.5471 49.9999 21.8127 49.9999H24.8994C26.165 49.9999 27.1564 48.7624 27.1564 47.1874V42.2515C27.1635 40.6694 26.1721 39.439 24.9064 39.439Z" fill="#FF2147" stroke="black"/>
</svg>
