<svg width="75" height="75" viewBox="0 0 75 75" fill="none" xmlns="http://www.w3.org/2000/svg">
<rect width="75" height="75" rx="15" fill="white"/>
<path d="M57.7356 25.0352C57.7384 25.0186 57.7432 25.0019 57.7446 24.9853C57.7495 24.9341 57.7439 24.8821 57.7377 24.8302C57.7363 24.817 57.7384 24.8046 57.7363 24.7914C57.7238 24.7229 57.701 24.6557 57.6671 24.5913C57.6615 24.5802 57.6539 24.5698 57.6477 24.5587C57.6463 24.5574 57.6463 24.5553 57.6456 24.5532C57.6449 24.5518 57.6428 24.5511 57.6421 24.549C57.6373 24.5414 57.6331 24.5331 57.6283 24.5262C57.5853 24.4632 57.5334 24.4112 57.4752 24.3669C57.4621 24.3572 57.4468 24.3517 57.433 24.3427C57.3818 24.3087 57.3277 24.281 57.2696 24.2624C57.2439 24.254 57.2183 24.2499 57.192 24.245C57.1415 24.2347 57.0909 24.2298 57.0383 24.2312C57.0106 24.2319 56.9843 24.2333 56.9566 24.2374C56.9386 24.2402 56.9212 24.2374 56.9032 24.2416L16.7068 32.5487C16.4208 32.6083 16.202 32.8403 16.1611 33.1297C16.1203 33.4192 16.265 33.7031 16.5233 33.8395L28.0409 39.9148L30.0609 51.1241C30.0595 51.1324 30.0615 51.1414 30.0609 51.1498C30.0539 51.2052 30.0532 51.2592 30.0602 51.3139C30.0636 51.3416 30.0671 51.3679 30.074 51.3949C30.0899 51.4607 30.1156 51.5223 30.1502 51.5805C30.1571 51.5916 30.1571 51.6047 30.1647 51.6158C30.1668 51.6193 30.1703 51.622 30.173 51.6248C30.182 51.638 30.1945 51.6483 30.2049 51.6615C30.2374 51.7017 30.2714 51.7384 30.3101 51.7695C30.3164 51.7744 30.3205 51.782 30.3275 51.7868C30.3378 51.7945 30.3496 51.7965 30.36 51.8035C30.4022 51.8312 30.4459 51.854 30.4923 51.872C30.511 51.8789 30.5283 51.8873 30.5477 51.8928C30.61 51.9108 30.6744 51.9233 30.7395 51.9233H30.7416C30.7443 51.9233 30.7471 51.9219 30.7499 51.9219C30.7617 51.9226 30.7734 51.9233 30.7852 51.9233C30.977 51.9233 31.1501 51.8374 31.2783 51.7051L38.9504 46.5904L46.9833 51.8118C47.0969 51.8852 47.2284 51.9233 47.3607 51.9233C47.4334 51.9233 47.5075 51.9115 47.5788 51.8879C47.7783 51.8215 47.9375 51.6677 48.0103 51.4697L57.7024 25.1626C57.7114 25.139 57.719 25.1148 57.7252 25.0899C57.728 25.0795 57.7287 25.0691 57.7308 25.0594C57.7328 25.0518 57.7342 25.0435 57.7356 25.0352ZM49.7152 29.4554L33.1002 41.6716C33.0732 41.6917 33.0517 41.7166 33.0282 41.7402C33.0192 41.7485 33.0102 41.7554 33.0026 41.7644C32.988 41.7803 32.9749 41.7963 32.9617 41.8136C32.9492 41.8302 32.9395 41.8475 32.9285 41.8648C32.9028 41.9064 32.8814 41.9493 32.8648 41.995C32.8613 42.004 32.8558 42.0109 32.853 42.0199C32.8523 42.0227 32.8495 42.0241 32.8488 42.0269L30.9445 48.2157L29.4355 39.8427L49.7152 29.4554ZM32.0178 49.548L33.9056 43.3128L36.8445 45.2234L37.6852 45.7698L34.8294 47.6734L32.0178 49.548ZM52.1943 26.6293L28.6682 38.6793L18.8764 33.5147L52.1943 26.6293ZM47.011 50.1782L36.3431 43.245L34.7276 42.1944L55.609 26.8405L47.011 50.1782Z" fill="black" stroke="black" stroke-width="0.4"/>
</svg>
