<svg width="75" height="75" viewBox="0 0 75 75" fill="none" xmlns="http://www.w3.org/2000/svg">
<rect width="75" height="75" rx="15" fill="white"/>
<path d="M53.1164 35.9817C52.4862 35.9817 51.9746 35.4701 51.9746 34.8399C51.9746 30.4675 50.2728 26.3586 47.1822 23.2665C46.7362 22.8205 46.7362 22.0974 47.1822 21.6514C47.6282 21.2054 48.3513 21.2054 48.7976 21.6514C52.3189 25.1741 54.2582 29.8587 54.2582 34.8399C54.2582 35.4701 53.7467 35.9817 53.1164 35.9817Z" fill="black"/>
<path d="M21.9113 35.9803C21.2811 35.9803 20.7695 35.4687 20.7695 34.8385C20.7695 29.8573 22.7091 25.1727 26.2319 21.6514C26.6779 21.2054 27.4013 21.2054 27.8473 21.6514C28.2933 22.0974 28.2933 22.8208 27.8473 23.2668C24.7553 26.3572 23.0531 30.4661 23.0531 34.8385C23.0531 35.4687 22.5416 35.9803 21.9113 35.9803Z" fill="black"/>
<path d="M37.5166 56.1531C34.3683 56.1531 31.8076 53.5924 31.8076 50.4441C31.8076 49.8138 32.3191 49.3022 32.9494 49.3022C33.5797 49.3022 34.0912 49.8138 34.0912 50.4441C34.0912 52.3335 35.6272 53.8695 37.5166 53.8695C39.4058 53.8695 40.9421 52.3335 40.9421 50.4441C40.9421 49.8138 41.4536 49.3022 42.0839 49.3022C42.7141 49.3022 43.2257 49.8138 43.2257 50.4441C43.2257 53.5924 40.665 56.1531 37.5166 56.1531Z" fill="black"/>
<path d="M50.0722 51.5869H24.9525C23.4831 51.5869 22.2881 50.3919 22.2881 48.9228C22.2881 48.1431 22.6276 47.4049 23.22 46.8979C25.5354 44.9415 26.8553 42.0979 26.8553 39.085V34.8403C26.8553 28.9641 31.6358 24.1836 37.5123 24.1836C43.3886 24.1836 48.1691 28.9641 48.1691 34.8403V39.085C48.1691 42.0979 49.489 44.9415 51.7894 46.8873C52.3968 47.4049 52.7363 48.1431 52.7363 48.9228C52.7363 50.3919 51.5413 51.5869 50.0722 51.5869ZM37.5123 26.4672C32.8947 26.4672 29.1389 30.2229 29.1389 34.8403V39.085C29.1389 42.7705 27.5238 46.2509 24.7088 48.6304C24.6556 48.6761 24.5717 48.7706 24.5717 48.9228C24.5717 49.1296 24.7454 49.3033 24.9525 49.3033H50.0722C50.279 49.3033 50.4527 49.1296 50.4527 48.9228C50.4527 48.7706 50.3691 48.6761 50.3186 48.6334C47.5006 46.2509 45.8855 42.7705 45.8855 39.085V34.8403C45.8855 30.2229 42.1297 26.4672 37.5123 26.4672Z" fill="black"/>
<path d="M37.5149 26.4661C36.8846 26.4661 36.373 25.9545 36.373 25.3243V20.757C36.373 20.1268 36.8846 19.6152 37.5149 19.6152C38.1451 19.6152 38.6567 20.1268 38.6567 20.757V25.3243C38.6567 25.9545 38.1451 26.4661 37.5149 26.4661Z" fill="black"/>
</svg>
