<svg width="65" height="65" viewBox="0 0 65 65" fill="none" xmlns="http://www.w3.org/2000/svg">
<rect width="65" height="65" rx="15" fill="white"/>
<path d="M46.2261 19.6725C42.5408 15.9664 36.4587 16.1506 32.9499 20.0029C29.4409 16.1507 23.3591 15.9663 19.6738 19.6725C16.0091 23.3221 16.134 29.3318 19.9099 32.8543C17.9781 34.6992 19.0848 38.0145 21.7141 38.3377C21.5566 40.1382 23.0891 41.7892 24.9017 41.7586C25.0128 43.7406 27.0021 45.1594 28.9094 44.6356C29.5351 46.9969 32.543 47.8038 34.2686 46.0659C35.2487 45.0917 36.0281 44.4773 36.0778 43.0019C37.6972 42.9567 39.0983 41.5365 39.123 39.9181C40.758 39.8929 42.1825 38.4679 42.2076 36.8334C43.9037 36.8076 45.3744 35.2768 45.2954 33.5486L46.2259 32.6182C49.7952 29.049 49.7952 23.2416 46.2261 19.6725ZM21.3129 34.344L22.1869 33.47C22.4127 33.2441 22.7093 33.1312 23.0061 33.1312C24.0235 33.1245 24.5546 34.3824 23.8252 35.1083L22.9512 35.9823C21.8199 37.0238 20.2713 35.4758 21.3129 34.344ZM23.7498 38.5563C23.7498 38.2468 23.8704 37.9559 24.0892 37.7371L24.9636 36.8627C25.1823 36.6442 25.4731 36.5239 25.7823 36.5239C26.8084 36.5221 27.3285 37.7771 26.6014 38.5015L25.8303 39.2727C25.5946 39.5398 25.2708 39.7206 24.9082 39.7148C24.2857 39.7276 23.7369 39.179 23.7498 38.5563ZM27.2766 42.3573C26.8273 41.9261 26.8273 41.1502 27.2766 40.719L28.0478 39.9478C28.4974 39.4141 29.2867 39.3446 29.789 39.845C30.2406 40.2967 30.2406 41.0315 29.789 41.4833L28.9149 42.3573C28.4633 42.8092 27.7284 42.8091 27.2766 42.3573ZM33.6963 43.7455L32.8223 44.6195C32.6035 44.8383 32.3126 44.9588 32.0032 44.9588C31.6937 44.9588 31.4027 44.8383 31.1839 44.6195C30.7346 44.1882 30.7344 43.4124 31.184 42.9812L32.0579 42.1072C32.5096 41.6555 33.2446 41.6555 33.6962 42.1072C34.1457 42.5384 34.1457 43.3143 33.6963 43.7455ZM42.9118 34.4529C42.4806 34.9023 41.7047 34.9023 41.2735 34.4529L36.7218 29.9012L35.2755 31.3476L39.8272 35.8992C40.2788 36.351 40.2788 37.0858 39.8272 37.5375C39.3754 37.9894 38.6406 37.9893 38.1889 37.5375L33.7143 33.063L33.6372 32.9859L32.1908 34.4322L32.268 34.5094L36.7425 38.9839C37.1942 39.4356 37.1942 40.1706 36.7425 40.6223C36.2908 41.074 35.5558 41.074 35.1041 40.6223L35.1032 40.6232C34.2722 39.8197 33.1107 39.5551 32.0616 39.8295C31.7276 38.4649 30.3559 37.4318 28.9764 37.4619C28.9095 35.9931 27.6677 34.6662 26.2003 34.5077C26.394 31.9877 23.6263 30.2522 21.4421 31.4936C18.4002 28.7764 18.2128 24.0064 21.1203 21.1188C24.0112 18.2077 28.7877 18.4006 31.5037 21.4493L28.9751 23.9779L31.0013 26.0041C32.5577 27.5607 34.9561 27.7748 36.7443 26.6468L42.912 32.8146C43.3635 33.2662 43.3635 34.0012 42.9118 34.4529ZM44.7797 31.1718L44.468 31.4834C44.4325 31.4443 44.3959 31.4058 44.3582 31.3682L36.8247 23.8346L36.1015 24.5578C35.0942 25.5651 33.455 25.5652 32.4475 24.5578L31.8677 23.9779L34.7268 21.1188C41.672 14.7265 51.1707 24.2312 44.7797 31.1718Z" fill="black" stroke="white" stroke-width="0.6"/>
</svg>
