<svg width="65" height="65" viewBox="0 0 65 65" fill="none" xmlns="http://www.w3.org/2000/svg">
<rect width="65" height="65" rx="15" fill="#00CE67"/>
<path d="M50.6484 41.356V30.5625L50.9564 30.3831C51.6101 30.0037 52 29.3265 52 28.5715C52 27.8164 51.6101 27.138 50.9564 26.7585L35.1567 17.5804C33.8272 16.8059 32.1728 16.8072 30.8433 17.5804L15.0423 26.7598C14.3899 27.1393 14 27.8164 14 28.5715C14 29.3265 14.3899 30.0037 15.0423 30.3844L19.8328 33.1683V39.6391C19.8328 41.1415 20.6411 42.5386 21.9408 43.2885L28.5351 47.0899C29.9114 47.8827 31.4554 48.2804 32.9993 48.2804C34.5433 48.2804 36.086 47.884 37.4636 47.0899L44.0566 43.2885C45.3576 42.5399 46.1659 41.1415 46.1659 39.6391V33.167L48.309 31.9219V41.356C47.7593 41.7302 47.398 42.3606 47.398 43.0767C47.398 44.2255 48.3298 45.1574 49.4787 45.1574C50.6276 45.1574 51.5594 44.2255 51.5594 43.0767C51.5594 42.3619 51.1981 41.7315 50.6484 41.356ZM43.8279 39.6378H43.8266C43.8266 40.3059 43.4692 40.9271 42.8896 41.2598L36.2965 45.0612C34.2639 46.2322 31.7361 46.2322 29.7048 45.0612L23.1104 41.2598C22.5321 40.9271 22.1734 40.3059 22.1734 39.6378V34.5264L30.8433 39.5638C31.5087 39.9497 32.2547 40.1434 33.0006 40.1434C33.7466 40.1434 34.4926 39.951 35.158 39.5638L43.8279 34.5264V39.6378ZM33.9819 37.5415C33.3762 37.8937 32.6238 37.8937 32.0181 37.5415L16.5798 28.5715L32.0168 19.6014C32.6225 19.2492 33.3749 19.2492 33.9806 19.6014L49.4189 28.5702L33.9819 37.5415Z" fill="white" stroke="#00CE67"/>
</svg>
