<svg width="238" height="34" viewBox="0 0 238 34" fill="none" xmlns="http://www.w3.org/2000/svg">
<path d="M18.123 33.7013L13.4844 19.0113L49.2031 0L18.123 33.7013Z" fill="#008E39"/>
<path d="M23.6255 23.4794L18.125 33.7013L49.2051 0L23.6255 23.4794Z" fill="#006B2B"/>
<path d="M49.2046 0L39.8825 28.9372L23.625 23.4794L49.2046 0Z" fill="#00CE67"/>
<path d="M13.364 19.0705L49.2035 0L0 15.7792L13.364 19.0705Z" fill="#00CE67"/>
<path d="M57.1117 22.5415C55.5631 21.0782 54.7344 19.0939 54.7344 16.835C54.7344 14.5761 55.5726 12.6132 57.133 11.138C58.6389 9.68416 60.7179 8.90039 63.062 8.90039C65.6927 8.90039 67.8356 9.80255 69.2468 11.5216L67.5064 13.2619C66.3296 11.9999 64.9279 11.4056 63.1473 11.4056C59.8584 11.4056 57.4834 13.6858 57.4834 16.8374C57.4834 19.9889 59.8607 22.2999 63.126 22.2999C64.3454 22.2999 65.3967 22.0348 66.3509 21.4736V18.0994H61.5253V15.6606H68.9934V22.7475C67.5396 24.0521 65.3541 24.8051 63.0312 24.8051C60.7084 24.8051 58.6081 24.0095 57.1117 22.5462V22.5415Z" fill="white"/>
<path d="M75.1764 24.6413H72.4297V9.05859H79.0714C80.4282 9.05859 81.6074 9.27171 82.5498 9.69555C84.5435 10.5859 85.6256 12.3262 85.6256 14.5756C85.6256 15.7004 85.3604 16.6877 84.83 17.5354C84.1931 18.5015 83.2814 19.2 82.1046 19.6262L85.6682 24.6437H82.5924L79.3982 20.1045H75.1764V24.6437V24.6413ZM75.1764 11.5188V17.6301H79.0051C81.5292 17.6301 82.8765 16.5694 82.8765 14.5756C82.8765 12.5819 81.5292 11.5211 79.0051 11.5211H75.1764V11.5188Z" fill="white"/>
<path d="M90.1442 24.6413H87.2578L94.3234 9.05859H96.8262L103.913 24.6413H100.975L99.1822 20.5473H91.9366L90.1442 24.6413ZM95.5547 12.2931L92.9548 18.2221H98.164L95.5547 12.2931Z" fill="white"/>
<path d="M109.047 24.6413H106.301V9.05859H108.508L117.037 19.657V9.05859H119.783V24.6413H117.588L109.05 14.0334V24.6413H109.047Z" fill="white"/>
<path d="M128.703 24.6413H125.977V11.5188H120.844V9.05859H133.838V11.5188H128.705V24.6413H128.703Z" fill="white"/>
<path d="M145.508 24.6413H142.762V9.05859H149.403C150.76 9.05859 151.939 9.27171 152.882 9.69555C154.876 10.5859 155.958 12.3262 155.958 14.5756C155.958 15.7004 155.692 16.6877 155.162 17.5354C154.08 19.2119 152.074 20.1021 149.401 20.1021H145.508V24.6413ZM145.508 11.5188V17.6301H149.337C151.861 17.6301 153.209 16.5694 153.209 14.5756C153.209 12.5819 151.861 11.5211 149.337 11.5211H145.508V11.5188Z" fill="white"/>
<path d="M161.356 24.6413H158.609V9.05859H165.251C166.608 9.05859 167.787 9.27171 168.729 9.69555C170.723 10.5859 171.805 12.3262 171.805 14.5756C171.805 15.7004 171.54 16.6877 171.01 17.5354C170.373 18.5015 169.461 19.2 168.284 19.6262L171.848 24.6437H168.772L165.578 20.1045H161.356V24.6437V24.6413ZM161.356 11.5188V17.6301H165.185C167.709 17.6301 169.056 16.5694 169.056 14.5756C169.056 12.5819 167.709 11.5211 165.185 11.5211H161.356V11.5188Z" fill="white"/>
<path d="M177.409 22.5201C175.86 21.0568 175.031 19.0821 175.031 16.835C175.031 14.5879 175.869 12.6439 177.409 11.1593C178.926 9.69599 181.005 8.90039 183.328 8.90039C185.651 8.90039 187.687 9.68653 189.215 11.138C190.754 12.6132 191.571 14.5974 191.571 16.835C191.571 19.0726 190.754 21.09 189.215 22.5415C187.697 24.0166 185.651 24.8004 183.328 24.8004C181.005 24.8004 178.926 23.9835 177.409 22.5201ZM188.821 16.8326C188.821 13.7237 186.465 11.4008 183.326 11.4008C180.186 11.4008 177.778 13.7142 177.778 16.8326C177.778 19.951 180.134 22.2952 183.326 22.2952C186.518 22.2952 188.821 19.9724 188.821 16.8326Z" fill="white"/>
<path d="M196.969 24.6413H194.223V9.05859H200.864C202.221 9.05859 203.4 9.27171 204.343 9.69555C206.336 10.5859 207.419 12.3262 207.419 14.5756C207.419 15.7004 207.153 16.6877 206.623 17.5354C205.541 19.2119 203.535 20.1021 200.862 20.1021H196.969V24.6413ZM196.969 11.5188V17.6301H200.798C203.322 17.6301 204.67 16.5694 204.67 14.5756C204.67 12.5819 203.322 11.5211 200.798 11.5211H196.969V11.5188Z" fill="white"/>
<path d="M222.419 24.6413H210.07V9.05859H222.471V11.5188H212.817V15.6554H221.559V18.0942H212.817V22.1669H222.416V24.6389L222.419 24.6413Z" fill="white"/>
<path d="M238.001 24.6413H225.652V9.05859H228.399V22.1693H237.998V24.6413H238.001Z" fill="white"/>
</svg>
