<svg width="201" height="312" viewBox="0 0 201 312" fill="none" xmlns="http://www.w3.org/2000/svg">
<path d="M325.037 296.555V301.663C325.037 302.7 325.875 303.542 326.91 303.542H332.002V304.653H326.91C325.877 304.653 325.037 305.494 325.037 306.532V311.641H323.93V306.532C323.93 305.495 323.092 304.653 322.057 304.653H316.965V303.542H322.057C323.09 303.542 323.93 302.702 323.93 301.663V296.555H325.037ZM289.818 301.585C289.818 302.622 290.656 303.464 291.691 303.464H296.783V304.575H291.691C290.658 304.575 289.818 305.416 289.818 306.454V311.562H288.711V306.454C288.711 305.417 287.873 304.575 286.838 304.575H281.746V303.464H286.838C287.871 303.464 288.711 302.624 288.711 301.585V296.477H289.818V301.585ZM254.6 301.505C254.6 302.542 255.437 303.384 256.473 303.384H261.564V304.495H256.473C255.439 304.495 254.6 305.335 254.6 306.374V311.482H253.492V306.374C253.492 305.337 252.654 304.495 251.619 304.495H246.527V303.384H251.619C252.653 303.384 253.492 302.543 253.492 301.505V296.396H254.6V301.505ZM219.381 301.427C219.381 302.464 220.219 303.306 221.254 303.306H226.346V304.417H221.254C220.22 304.417 219.381 305.257 219.381 306.296V311.404H218.273V306.296C218.273 305.259 217.436 304.417 216.4 304.417H211.309V303.306H216.4C217.434 303.306 218.273 302.465 218.273 301.427V296.318H219.381V301.427ZM184.162 301.347C184.162 302.384 185 303.226 186.035 303.226H191.127V304.337H186.035C185.002 304.337 184.162 305.177 184.162 306.216V311.324H183.055V306.216C183.055 305.179 182.217 304.337 181.182 304.337H176.09V303.226H181.182C182.215 303.226 183.055 302.385 183.055 301.347V296.238H184.162V301.347ZM148.943 301.267C148.943 302.304 149.781 303.146 150.816 303.146H155.908V304.257H150.816C149.783 304.257 148.943 305.097 148.943 306.136V311.244H147.836V306.136C147.836 305.099 146.998 304.257 145.963 304.257H140.871V303.146H145.963C146.996 303.146 147.836 302.305 147.836 301.267V296.158H148.943V301.267ZM113.729 301.188C113.729 302.225 114.566 303.067 115.602 303.067H120.693V304.179H115.602C114.568 304.179 113.729 305.019 113.729 306.058V311.166H112.621V306.058C112.621 305.021 111.783 304.179 110.748 304.179H105.656V303.067H110.748C111.782 303.067 112.621 302.227 112.621 301.188V296.08H113.729V301.188ZM78.5098 301.108C78.5098 302.145 79.3476 302.987 80.3828 302.987H85.4746V304.099H80.3828C79.3492 304.099 78.5098 304.939 78.5098 305.978V311.086H77.4023V305.978C77.4023 304.941 76.5645 304.099 75.5293 304.099H70.4375V302.987H75.5293C76.5629 302.987 77.4023 302.147 77.4023 301.108V296H78.5098V301.108ZM43.291 301.028C43.291 302.065 44.1289 302.907 45.1641 302.907H50.2559V304.019H45.1641C44.1305 304.019 43.291 304.859 43.291 305.897V311.006H42.1836V305.897C42.1836 304.861 41.3457 304.019 40.3105 304.019H35.2188V302.907H40.3105C41.3441 302.907 42.1836 302.067 42.1836 301.028V295.92H43.291V301.028ZM8.07227 300.95C8.07227 301.987 8.91014 302.829 9.94531 302.829H15.0371V303.94H9.94531C8.91172 303.94 8.07227 304.781 8.07227 305.819V310.928H6.96484V305.819C6.96484 304.782 6.12697 303.94 5.0918 303.94H0V302.829H5.0918C6.12539 302.829 6.96484 301.989 6.96484 300.95V295.842H8.07227V300.95ZM325.037 268.792C325.037 269.829 325.875 270.671 326.91 270.671H332.002V271.782H326.91C325.877 271.782 325.037 272.623 325.037 273.661V278.77H323.93V273.661C323.93 272.624 323.092 271.782 322.057 271.782H316.965V270.671H322.057C323.09 270.671 323.93 269.831 323.93 268.792V263.684H325.037V268.792ZM289.818 268.714C289.818 269.751 290.656 270.593 291.691 270.593H296.783V271.704H291.691C290.658 271.704 289.818 272.544 289.818 273.583V278.691H288.711V273.583C288.711 272.546 287.873 271.704 286.838 271.704H281.746V270.593H286.838C287.871 270.593 288.711 269.752 288.711 268.714V263.605H289.818V268.714ZM254.6 268.634C254.6 269.671 255.437 270.513 256.473 270.513H261.564V271.624H256.473C255.439 271.624 254.6 272.464 254.6 273.503V278.611H253.492V273.503C253.492 272.466 252.654 271.624 251.619 271.624H246.527V270.513H251.619C252.653 270.513 253.492 269.672 253.492 268.634V263.525H254.6V268.634ZM219.381 268.554C219.381 269.591 220.219 270.433 221.254 270.433H226.346V271.544H221.254C220.22 271.544 219.381 272.384 219.381 273.423V278.531H218.273V273.423C218.273 272.386 217.436 271.544 216.4 271.544H211.309V270.433H216.4C217.434 270.433 218.273 269.592 218.273 268.554V263.445H219.381V268.554ZM184.162 268.476C184.162 269.513 185 270.354 186.035 270.354H191.127V271.466H186.035C185.002 271.466 184.162 272.306 184.162 273.345V278.453H183.055V273.345C183.055 272.308 182.217 271.466 181.182 271.466H176.09V270.354H181.182C182.215 270.354 183.055 269.514 183.055 268.476V263.367H184.162V268.476ZM148.943 268.396C148.943 269.432 149.781 270.274 150.816 270.274H155.908V271.386H150.816C149.783 271.386 148.943 272.226 148.943 273.265V278.373H147.836V273.265C147.836 272.228 146.998 271.386 145.963 271.386H140.871V270.274H145.963C146.996 270.274 147.836 269.434 147.836 268.396V263.287H148.943V268.396ZM113.729 268.317C113.729 269.354 114.566 270.196 115.602 270.196H120.693V271.308H115.602C114.568 271.308 113.729 272.148 113.729 273.187V278.295H112.621V273.187C112.621 272.15 111.783 271.308 110.748 271.308H105.656V270.196H110.748C111.782 270.196 112.621 269.356 112.621 268.317V263.209H113.729V268.317ZM78.5098 268.237C78.5098 269.274 79.3476 270.116 80.3828 270.116H85.4746V271.228H80.3828C79.3492 271.228 78.5098 272.068 78.5098 273.106V278.215H77.4023V273.106C77.4023 272.069 76.5645 271.228 75.5293 271.228H70.4375V270.116H75.5293C76.5629 270.116 77.4023 269.276 77.4023 268.237V263.129H78.5098V268.237ZM43.291 268.157C43.291 269.194 44.1289 270.036 45.1641 270.036H50.2559V271.147H45.1641C44.1305 271.147 43.291 271.988 43.291 273.026V278.135H42.1836V273.026C42.1836 271.989 41.3457 271.147 40.3105 271.147H35.2188V270.036H40.3105C41.3441 270.036 42.1836 269.196 42.1836 268.157V263.049H43.291V268.157ZM8.07227 268.079C8.07227 269.116 8.91014 269.958 9.94531 269.958H15.0371V271.069H9.94531C8.91172 271.069 8.07227 271.91 8.07227 272.948V278.057H6.96484V272.948C6.96484 271.911 6.12697 271.069 5.0918 271.069H0V269.958H5.0918C6.12539 269.958 6.96484 269.118 6.96484 268.079V262.971H8.07227V268.079ZM325.037 235.921C325.037 236.958 325.875 237.8 326.91 237.8H332.002V238.911H326.91C325.877 238.911 325.037 239.751 325.037 240.79V245.898H323.93V240.79C323.93 239.753 323.092 238.911 322.057 238.911H316.965V237.8H322.057C323.09 237.8 323.93 236.959 323.93 235.921V230.812H325.037V235.921ZM289.818 235.843C289.818 236.88 290.656 237.722 291.691 237.722H296.783V238.833H291.691C290.658 238.833 289.818 239.673 289.818 240.712V245.82H288.711V240.712C288.711 239.675 287.873 238.833 286.838 238.833H281.746V237.722H286.838C287.871 237.722 288.711 236.881 288.711 235.843V230.734H289.818V235.843ZM254.6 235.763C254.6 236.8 255.437 237.642 256.473 237.642H261.564V238.753H256.473C255.439 238.753 254.6 239.593 254.6 240.632V245.74H253.492V240.632C253.492 239.595 252.654 238.753 251.619 238.753H246.527V237.642H251.619C252.653 237.642 253.492 236.801 253.492 235.763V230.654H254.6V235.763ZM219.381 235.683C219.381 236.72 220.219 237.562 221.254 237.562H226.346V238.673H221.254C220.22 238.673 219.381 239.513 219.381 240.552V245.66H218.273V240.552C218.273 239.515 217.436 238.673 216.4 238.673H211.309V237.562H216.4C217.434 237.562 218.273 236.721 218.273 235.683V230.574H219.381V235.683ZM184.162 235.604C184.162 236.641 185 237.483 186.035 237.483H191.127V238.595H186.035C185.002 238.595 184.162 239.435 184.162 240.474V245.582H183.055V240.474C183.055 239.437 182.217 238.595 181.182 238.595H176.09V237.483H181.182C182.215 237.483 183.055 236.643 183.055 235.604V230.496H184.162V235.604ZM148.943 235.524C148.943 236.561 149.781 237.403 150.816 237.403H155.908V238.515H150.816C149.783 238.515 148.943 239.355 148.943 240.394V245.502H147.836V240.394C147.836 239.357 146.998 238.515 145.963 238.515H140.871V237.403H145.963C146.996 237.403 147.836 236.563 147.836 235.524V230.416H148.943V235.524ZM113.729 235.444C113.729 236.481 114.566 237.323 115.602 237.323H120.693V238.435H115.602C114.568 238.435 113.729 239.275 113.729 240.313V245.422H112.621V240.313C112.621 239.277 111.783 238.435 110.748 238.435H105.656V237.323H110.748C111.782 237.323 112.621 236.483 112.621 235.444V230.336H113.729V235.444ZM78.5098 235.366C78.5098 236.403 79.3476 237.245 80.3828 237.245H85.4746V238.356H80.3828C79.3492 238.356 78.5098 239.197 78.5098 240.235V245.344H77.4023V240.235C77.4023 239.198 76.5645 238.356 75.5293 238.356H70.4375V237.245H75.5293C76.5629 237.245 77.4023 236.405 77.4023 235.366V230.258H78.5098V235.366ZM43.291 235.286C43.291 236.323 44.1289 237.165 45.1641 237.165H50.2559V238.276H45.1641C44.1305 238.276 43.291 239.117 43.291 240.155V245.264H42.1836V240.155C42.1836 239.118 41.3457 238.276 40.3105 238.276H35.2188V237.165H40.3105C41.3441 237.165 42.1836 236.325 42.1836 235.286V230.178H43.291V235.286ZM8.07227 235.206C8.07227 236.243 8.91014 237.085 9.94531 237.085H15.0371V238.196H9.94531C8.91172 238.196 8.07227 239.037 8.07227 240.075V245.184H6.96484V240.075C6.96484 239.038 6.12697 238.196 5.0918 238.196H0V237.085H5.0918C6.12539 237.085 6.96484 236.245 6.96484 235.206V230.098H8.07227V235.206ZM325.037 203.05C325.037 204.087 325.875 204.929 326.91 204.929H332.002V206.04H326.91C325.877 206.04 325.037 206.88 325.037 207.919V213.027H323.93V207.919C323.93 206.882 323.092 206.04 322.057 206.04H316.965V204.929H322.057C323.09 204.929 323.93 204.088 323.93 203.05V197.941H325.037V203.05ZM289.818 202.972C289.818 204.009 290.656 204.851 291.691 204.851H296.783V205.962H291.691C290.658 205.962 289.818 206.802 289.818 207.841V212.949H288.711V207.841C288.711 206.804 287.873 205.962 286.838 205.962H281.746V204.851H286.838C287.871 204.851 288.711 204.01 288.711 202.972V197.863H289.818V202.972ZM254.6 202.892C254.6 203.929 255.437 204.771 256.473 204.771H261.564V205.882H256.473C255.439 205.882 254.6 206.722 254.6 207.761V212.869H253.492V207.761C253.492 206.724 252.654 205.882 251.619 205.882H246.527V204.771H251.619C252.653 204.771 253.492 203.93 253.492 202.892V197.783H254.6V202.892ZM219.381 202.812C219.381 203.848 220.219 204.69 221.254 204.69H226.346V205.802H221.254C220.22 205.802 219.381 206.642 219.381 207.681V212.789H218.273V207.681C218.273 206.644 217.436 205.802 216.4 205.802H211.309V204.69H216.4C217.434 204.69 218.273 203.85 218.273 202.812V197.703H219.381V202.812ZM184.162 202.733C184.162 203.77 185 204.612 186.035 204.612H191.127V205.724H186.035C185.002 205.724 184.162 206.564 184.162 207.603V212.711H183.055V207.603C183.055 206.566 182.217 205.724 181.182 205.724H176.09V204.612H181.182C182.215 204.612 183.055 203.772 183.055 202.733V197.625H184.162V202.733ZM148.943 202.653C148.943 203.69 149.781 204.532 150.816 204.532H155.908V205.644H150.816C149.783 205.644 148.943 206.484 148.943 207.522V212.631H147.836V207.522C147.836 206.486 146.998 205.644 145.963 205.644H140.871V204.532H145.963C146.996 204.532 147.836 203.692 147.836 202.653V197.545H148.943V202.653ZM113.729 202.573C113.729 203.61 114.566 204.452 115.602 204.452H120.693V205.563H115.602C114.568 205.563 113.729 206.404 113.729 207.442V212.551H112.621V207.442C112.621 206.405 111.783 205.563 110.748 205.563H105.656V204.452H110.748C111.782 204.452 112.621 203.612 112.621 202.573V197.465H113.729V202.573ZM78.5098 202.495C78.5098 203.532 79.3476 204.374 80.3828 204.374H85.4746V205.485H80.3828C79.3492 205.485 78.5098 206.326 78.5098 207.364V212.473H77.4023V207.364C77.4023 206.327 76.5645 205.485 75.5293 205.485H70.4375V204.374H75.5293C76.5629 204.374 77.4023 203.534 77.4023 202.495V197.387H78.5098V202.495ZM43.291 202.415C43.291 203.452 44.1289 204.294 45.1641 204.294H50.2559V205.405H45.1641C44.1305 205.405 43.291 206.246 43.291 207.284V212.393H42.1836V207.284C42.1836 206.247 41.3457 205.405 40.3105 205.405H35.2188V204.294H40.3105C41.3441 204.294 42.1836 203.454 42.1836 202.415V197.307H43.291V202.415ZM8.07227 202.335C8.07227 203.372 8.91014 204.214 9.94531 204.214H15.0371V205.325H9.94531C8.91172 205.325 8.07227 206.166 8.07227 207.204V212.312H6.96484V207.204C6.96484 206.167 6.12697 205.325 5.0918 205.325H0V204.214H5.0918C6.12539 204.214 6.96484 203.374 6.96484 202.335V197.227H8.07227V202.335ZM325.037 170.179C325.037 171.216 325.875 172.058 326.91 172.058H332.002V173.169H326.91C325.877 173.169 325.037 174.009 325.037 175.048V180.156H323.93V175.048C323.93 174.011 323.092 173.169 322.057 173.169H316.965V172.058H322.057C323.09 172.058 323.93 171.217 323.93 170.179V165.07H325.037V170.179ZM289.818 170.101C289.818 171.138 290.656 171.979 291.691 171.979H296.783V173.091H291.691C290.658 173.091 289.818 173.931 289.818 174.97V180.078H288.711V174.97C288.711 173.933 287.873 173.091 286.838 173.091H281.746V171.979H286.838C287.871 171.979 288.711 171.139 288.711 170.101V164.992H289.818V170.101ZM254.6 170.021C254.6 171.057 255.437 171.899 256.473 171.899H261.564V173.011H256.473C255.439 173.011 254.6 173.851 254.6 174.89V179.998H253.492V174.89C253.492 173.853 252.654 173.011 251.619 173.011H246.527V171.899H251.619C252.653 171.899 253.492 171.059 253.492 170.021V164.912H254.6V170.021ZM219.381 169.94C219.381 170.977 220.219 171.819 221.254 171.819H226.346V172.931H221.254C220.22 172.931 219.381 173.771 219.381 174.81V179.918H218.273V174.81C218.273 173.773 217.436 172.931 216.4 172.931H211.309V171.819H216.4C217.434 171.819 218.273 170.979 218.273 169.94V164.832H219.381V169.94ZM184.162 169.862C184.162 170.899 185 171.741 186.035 171.741H191.127V172.853H186.035C185.002 172.853 184.162 173.693 184.162 174.731V179.84H183.055V174.731C183.055 173.694 182.217 172.853 181.182 172.853H176.09V171.741H181.182C182.215 171.741 183.055 170.901 183.055 169.862V164.754H184.162V169.862ZM148.943 169.782C148.943 170.819 149.781 171.661 150.816 171.661H155.908V172.772H150.816C149.783 172.772 148.943 173.613 148.943 174.651V179.76H147.836V174.651C147.836 173.614 146.998 172.772 145.963 172.772H140.871V171.661H145.963C146.996 171.661 147.836 170.821 147.836 169.782V164.674H148.943V169.782ZM113.729 169.702C113.729 170.739 114.566 171.581 115.602 171.581H120.693V172.692H115.602C114.568 172.692 113.729 173.533 113.729 174.571V179.68H112.621V174.571C112.621 173.534 111.783 172.692 110.748 172.692H105.656V171.581H110.748C111.782 171.581 112.621 170.741 112.621 169.702V164.594H113.729V169.702ZM78.5098 169.624C78.5098 170.661 79.3476 171.503 80.3828 171.503H85.4746V172.614H80.3828C79.3492 172.614 78.5098 173.455 78.5098 174.493V179.602H77.4023V174.493C77.4023 173.456 76.5645 172.614 75.5293 172.614H70.4375V171.503H75.5293C76.5629 171.503 77.4023 170.663 77.4023 169.624V164.516H78.5098V169.624ZM43.291 169.544C43.291 170.581 44.1289 171.423 45.1641 171.423H50.2559V172.534H45.1641C44.1305 172.534 43.291 173.375 43.291 174.413V179.521H42.1836V174.413C42.1836 173.376 41.3457 172.534 40.3105 172.534H35.2188V171.423H40.3105C41.3441 171.423 42.1836 170.582 42.1836 169.544V164.436H43.291V169.544ZM8.07227 169.464C8.07227 170.501 8.91014 171.343 9.94531 171.343H15.0371V172.454H9.94531C8.91172 172.454 8.07227 173.294 8.07227 174.333V179.441H6.96484V174.333C6.96484 173.296 6.12697 172.454 5.0918 172.454H0V171.343H5.0918C6.12539 171.343 6.96484 170.502 6.96484 169.464V164.355H8.07227V169.464ZM325.037 137.308C325.037 138.345 325.875 139.187 326.91 139.187H332.002V140.298H326.91C325.877 140.298 325.037 141.138 325.037 142.177V147.285H323.93V142.177C323.93 141.14 323.092 140.298 322.057 140.298H316.965V139.187H322.057C323.09 139.187 323.93 138.346 323.93 137.308V132.199H325.037V137.308ZM289.818 137.229C289.818 138.266 290.656 139.108 291.691 139.108H296.783V140.22H291.691C290.658 140.22 289.818 141.06 289.818 142.099V147.207H288.711V142.099C288.711 141.062 287.873 140.22 286.838 140.22H281.746V139.108H286.838C287.871 139.108 288.711 138.268 288.711 137.229V132.121H289.818V137.229ZM254.6 137.149C254.6 138.186 255.437 139.028 256.473 139.028H261.564V140.14H256.473C255.439 140.14 254.6 140.98 254.6 142.019V147.127H253.492V142.019C253.492 140.982 252.654 140.14 251.619 140.14H246.527V139.028H251.619C252.653 139.028 253.492 138.188 253.492 137.149V132.041H254.6V137.149ZM219.381 137.069C219.381 138.106 220.219 138.948 221.254 138.948H226.346V140.06H221.254C220.22 140.06 219.381 140.9 219.381 141.938V147.047H218.273V141.938C218.273 140.902 217.436 140.06 216.4 140.06H211.309V138.948H216.4C217.434 138.948 218.273 138.108 218.273 137.069V131.961H219.381V137.069ZM184.162 136.991C184.162 138.028 185 138.87 186.035 138.87H191.127V139.981H186.035C185.002 139.981 184.162 140.822 184.162 141.86V146.969H183.055V141.86C183.055 140.823 182.217 139.981 181.182 139.981H176.09V138.87H181.182C182.215 138.87 183.055 138.03 183.055 136.991V131.883H184.162V136.991ZM148.943 136.911C148.943 137.948 149.781 138.79 150.816 138.79H155.908V139.901H150.816C149.783 139.901 148.943 140.742 148.943 141.78V146.889H147.836V141.78C147.836 140.743 146.998 139.901 145.963 139.901H140.871V138.79H145.963C146.996 138.79 147.836 137.95 147.836 136.911V131.803H148.943V136.911ZM113.729 136.831C113.729 137.868 114.566 138.71 115.602 138.71H120.693V139.821H115.602C114.568 139.821 113.729 140.662 113.729 141.7V146.809H112.621V141.7C112.621 140.663 111.783 139.821 110.748 139.821H105.656V138.71H110.748C111.782 138.71 112.621 137.87 112.621 136.831V131.723H113.729V136.831ZM78.5098 136.753C78.5098 137.79 79.3476 138.632 80.3828 138.632H85.4746V139.743H80.3828C79.3492 139.743 78.5098 140.584 78.5098 141.622V146.73H77.4023V141.622C77.4023 140.585 76.5645 139.743 75.5293 139.743H70.4375V138.632H75.5293C76.5629 138.632 77.4023 137.791 77.4023 136.753V131.645H78.5098V136.753ZM43.291 136.673C43.291 137.71 44.1289 138.552 45.1641 138.552H50.2559V139.663H45.1641C44.1305 139.663 43.291 140.503 43.291 141.542V146.65H42.1836V141.542C42.1836 140.505 41.3457 139.663 40.3105 139.663H35.2188V138.552H40.3105C41.3441 138.552 42.1836 137.711 42.1836 136.673V131.564H43.291V136.673ZM8.07227 136.593C8.07227 137.63 8.91014 138.472 9.94531 138.472H15.0371V139.583H9.94531C8.91172 139.583 8.07227 140.423 8.07227 141.462V146.57H6.96484V141.462C6.96484 140.425 6.12697 139.583 5.0918 139.583H0V138.472H5.0918C6.12539 138.472 6.96484 137.631 6.96484 136.593V131.484H8.07227V136.593ZM325.037 104.437C325.037 105.473 325.875 106.315 326.91 106.315H332.002V107.427H326.91C325.877 107.427 325.037 108.267 325.037 109.306V114.414H323.93V109.306C323.93 108.269 323.092 107.427 322.057 107.427H316.965V106.315H322.057C323.09 106.315 323.93 105.475 323.93 104.437V99.3281H325.037V104.437ZM289.818 104.356C289.818 105.393 290.656 106.235 291.691 106.235H296.783V107.347H291.691C290.658 107.347 289.818 108.187 289.818 109.226V114.334H288.711V109.226C288.711 108.189 287.873 107.347 286.838 107.347H281.746V106.235H286.838C287.871 106.235 288.711 105.395 288.711 104.356V99.248H289.818V104.356ZM254.6 104.278C254.6 105.315 255.437 106.157 256.473 106.157H261.564V107.269H256.473C255.439 107.269 254.6 108.109 254.6 109.147V114.256H253.492V109.147C253.492 108.111 252.654 107.269 251.619 107.269H246.527V106.157H251.619C252.653 106.157 253.492 105.317 253.492 104.278V99.1699H254.6V104.278ZM219.381 104.198C219.381 105.235 220.219 106.077 221.254 106.077H226.346V107.188H221.254C220.22 107.188 219.381 108.029 219.381 109.067V114.176H218.273V109.067C218.273 108.03 217.436 107.188 216.4 107.188H211.309V106.077H216.4C217.434 106.077 218.273 105.237 218.273 104.198V99.0898H219.381V104.198ZM184.162 104.118C184.162 105.155 185 105.997 186.035 105.997H191.127V107.108H186.035C185.002 107.108 184.162 107.949 184.162 108.987V114.096H183.055V108.987C183.055 107.95 182.217 107.108 181.182 107.108H176.09V105.997H181.182C182.215 105.997 183.055 105.157 183.055 104.118V99.0098H184.162V104.118ZM148.943 104.04C148.943 105.077 149.781 105.919 150.816 105.919H155.908V107.03H150.816C149.783 107.03 148.943 107.871 148.943 108.909V114.018H147.836V108.909C147.836 107.872 146.998 107.03 145.963 107.03H140.871V105.919H145.963C146.996 105.919 147.836 105.079 147.836 104.04V98.9316H148.943V104.04ZM113.729 103.96C113.729 104.997 114.566 105.839 115.602 105.839H120.693V106.95H115.602C114.568 106.95 113.729 107.791 113.729 108.829V113.938H112.621V108.829C112.621 107.792 111.783 106.95 110.748 106.95H105.656V105.839H110.748C111.782 105.839 112.621 104.999 112.621 103.96V98.8516H113.729V103.96ZM78.5098 103.882C78.5098 104.919 79.3476 105.761 80.3828 105.761H85.4746V106.872H80.3828C79.3492 106.872 78.5098 107.712 78.5098 108.751V113.859H77.4023V108.751C77.4023 107.714 76.5645 106.872 75.5293 106.872H70.4375V105.761H75.5293C76.5629 105.761 77.4023 104.92 77.4023 103.882V98.7734H78.5098V103.882ZM43.291 103.802C43.291 104.839 44.1289 105.681 45.1641 105.681H50.2559V106.792H45.1641C44.1305 106.792 43.291 107.632 43.291 108.671V113.779H42.1836V108.671C42.1836 107.634 41.3457 106.792 40.3105 106.792H35.2188V105.681H40.3105C41.3441 105.681 42.1836 104.84 42.1836 103.802V98.6934H43.291V103.802ZM8.07227 103.722C8.07227 104.759 8.91014 105.601 9.94531 105.601H15.0371V106.712H9.94531C8.91172 106.712 8.07227 107.552 8.07227 108.591V113.699H6.96484V108.591C6.96484 107.554 6.12697 106.712 5.0918 106.712H0V105.601H5.0918C6.12539 105.601 6.96484 104.76 6.96484 103.722V98.6133H8.07227V103.722ZM325.037 71.5654C325.037 72.6024 325.875 73.4443 326.91 73.4443H332.002V74.5557H326.91C325.877 74.5557 325.037 75.396 325.037 76.4346V81.543H323.93V76.4346C323.93 75.3976 323.092 74.5557 322.057 74.5557H316.965V73.4443H322.057C323.09 73.4443 323.93 72.604 323.93 71.5654V66.457H325.037V71.5654ZM289.818 71.4854C289.818 72.5223 290.656 73.3643 291.691 73.3643H296.783V74.4756H291.691C290.658 74.4756 289.818 75.3159 289.818 76.3545V81.4629H288.711V76.3545C288.711 75.3175 287.873 74.4756 286.838 74.4756H281.746V73.3643H286.838C287.871 73.3643 288.711 72.5239 288.711 71.4854V66.377H289.818V71.4854ZM254.6 71.4072C254.6 72.4442 255.437 73.2861 256.473 73.2861H261.564V74.3975H256.473C255.439 74.3975 254.6 75.2378 254.6 76.2764V81.3848H253.492V76.2764C253.492 75.2394 252.654 74.3975 251.619 74.3975H246.527V73.2861H251.619C252.653 73.2861 253.492 72.4458 253.492 71.4072V66.2988H254.6V71.4072ZM219.381 71.3271C219.381 72.3641 220.219 73.2061 221.254 73.2061H226.346V74.3174H221.254C220.22 74.3174 219.381 75.1577 219.381 76.1963V81.3047H218.273V76.1963C218.273 75.1593 217.436 74.3174 216.4 74.3174H211.309V73.2061H216.4C217.434 73.2061 218.273 72.3657 218.273 71.3271V66.2188H219.381V71.3271ZM184.162 71.2471C184.162 72.284 185 73.126 186.035 73.126H191.127V74.2373H186.035C185.002 74.2373 184.162 75.0777 184.162 76.1162V81.2246H183.055V76.1162C183.055 75.0793 182.217 74.2373 181.182 74.2373H176.09V73.126H181.182C182.215 73.126 183.055 72.2856 183.055 71.2471V66.1387H184.162V71.2471ZM148.943 71.1689C148.943 72.2059 149.781 73.0479 150.816 73.0479H155.908V74.1592H150.816C149.783 74.1592 148.943 74.9995 148.943 76.0381V81.1465H147.836V76.0381C147.836 75.0011 146.998 74.1592 145.963 74.1592H140.871V73.0479H145.963C146.996 73.0479 147.836 72.2075 147.836 71.1689V66.0605H148.943V71.1689ZM113.729 71.0889C113.729 72.1258 114.566 72.9678 115.602 72.9678H120.693V74.0791H115.602C114.568 74.0791 113.729 74.9195 113.729 75.958V81.0664H112.621V75.958C112.621 74.9211 111.783 74.0791 110.748 74.0791H105.656V72.9678H110.748C111.782 72.9678 112.621 72.1274 112.621 71.0889V65.9805H113.729V71.0889ZM78.5098 71.0107C78.5098 72.0477 79.3476 72.8896 80.3828 72.8896H85.4746V74.001H80.3828C79.3492 74.001 78.5098 74.8413 78.5098 75.8799V80.9883H77.4023V75.8799C77.4023 74.8429 76.5645 74.001 75.5293 74.001H70.4375V72.8896H75.5293C76.5629 72.8896 77.4023 72.0493 77.4023 71.0107V65.9023H78.5098V71.0107ZM43.291 70.9307C43.291 71.9676 44.1289 72.8096 45.1641 72.8096H50.2559V73.9209H45.1641C44.1305 73.9209 43.291 74.7613 43.291 75.7998V80.9082H42.1836V75.7998C42.1836 74.7629 41.3457 73.9209 40.3105 73.9209H35.2188V72.8096H40.3105C41.3441 72.8096 42.1836 71.9692 42.1836 70.9307V65.8223H43.291V70.9307ZM8.07227 70.8506C8.07227 71.8875 8.91014 72.7295 9.94531 72.7295H15.0371V73.8408H9.94531C8.91172 73.8408 8.07227 74.6812 8.07227 75.7197V80.8281H6.96484V75.7197C6.96484 74.6828 6.12697 73.8408 5.0918 73.8408H0V72.7295H5.0918C6.12539 72.7295 6.96484 71.8891 6.96484 70.8506V65.7422H8.07227V70.8506ZM325.037 38.6943C325.037 39.7313 325.875 40.5732 326.91 40.5732H332.002V41.6846H326.91C325.877 41.6846 325.037 42.5249 325.037 43.5635V48.6719H323.93V43.5635C323.93 42.5265 323.092 41.6846 322.057 41.6846H316.965V40.5732H322.057C323.09 40.5732 323.93 39.7329 323.93 38.6943V33.5859H325.037V38.6943ZM289.818 38.6143C289.818 39.6512 290.656 40.4932 291.691 40.4932H296.783V41.6045H291.691C290.658 41.6045 289.818 42.4449 289.818 43.4834V48.5918H288.711V43.4834C288.711 42.4464 287.873 41.6045 286.838 41.6045H281.746V40.4932H286.838C287.871 40.4932 288.711 39.6528 288.711 38.6143V33.5059H289.818V38.6143ZM254.6 38.5361C254.6 39.5731 255.437 40.415 256.473 40.415H261.564V41.5264H256.473C255.439 41.5264 254.6 42.3667 254.6 43.4053V48.5137H253.492V43.4053C253.492 42.3683 252.654 41.5264 251.619 41.5264H246.527V40.415H251.619C252.653 40.415 253.492 39.5747 253.492 38.5361V33.4277H254.6V38.5361ZM219.381 38.4561C219.381 39.493 220.219 40.335 221.254 40.335H226.346V41.4463H221.254C220.22 41.4463 219.381 42.2867 219.381 43.3252V48.4336H218.273V43.3252C218.273 42.2882 217.436 41.4463 216.4 41.4463H211.309V40.335H216.4C217.434 40.335 218.273 39.4946 218.273 38.4561V33.3477H219.381V38.4561ZM184.162 38.376C184.162 39.4129 185 40.2549 186.035 40.2549H191.127V41.3662H186.035C185.002 41.3662 184.162 42.2066 184.162 43.2451V48.3535H183.055V43.2451C183.055 42.2082 182.217 41.3662 181.182 41.3662H176.09V40.2549H181.182C182.215 40.2549 183.055 39.4145 183.055 38.376V33.2676H184.162V38.376ZM148.943 38.2979C148.943 39.3348 149.781 40.1768 150.816 40.1768H155.908V41.2881H150.816C149.783 41.2881 148.943 42.1285 148.943 43.167V48.2754H147.836V43.167C147.836 42.13 146.998 41.2881 145.963 41.2881H140.871V40.1768H145.963C146.996 40.1768 147.836 39.3364 147.836 38.2979V33.1895H148.943V38.2979ZM113.729 38.2178C113.729 39.2547 114.566 40.0967 115.602 40.0967H120.693V41.208H115.602C114.568 41.208 113.729 42.0484 113.729 43.0869V48.1953H112.621V43.0869C112.621 42.05 111.783 41.208 110.748 41.208H105.656V40.0967H110.748C111.782 40.0967 112.621 39.2563 112.621 38.2178V33.1094H113.729V38.2178ZM78.5098 38.1377C78.5098 39.1746 79.3476 40.0166 80.3828 40.0166H85.4746V41.1279H80.3828C79.3492 41.1279 78.5098 41.9683 78.5098 43.0068V48.1152H77.4023V43.0068C77.4023 41.9699 76.5645 41.1279 75.5293 41.1279H70.4375V40.0166H75.5293C76.5629 40.0166 77.4023 39.1762 77.4023 38.1377V33.0293H78.5098V38.1377ZM43.291 38.0596C43.291 39.0965 44.1289 39.9385 45.1641 39.9385H50.2559V41.0498H45.1641C44.1305 41.0498 43.291 41.8902 43.291 42.9287V48.0371H42.1836V42.9287C42.1836 41.8918 41.3457 41.0498 40.3105 41.0498H35.2188V39.9385H40.3105C41.3441 39.9385 42.1836 39.0981 42.1836 38.0596V32.9512H43.291V38.0596ZM8.07227 37.9795C8.07227 39.0164 8.91014 39.8584 9.94531 39.8584H15.0371V40.9697H9.94531C8.91172 40.9697 8.07227 41.8101 8.07227 42.8486V47.957H6.96484V42.8486C6.96484 41.8117 6.12697 40.9697 5.0918 40.9697H0V39.8584H5.0918C6.12539 39.8584 6.96484 39.018 6.96484 37.9795V32.8711H8.07227V37.9795ZM325.037 5.82324C325.037 6.86019 325.875 7.70215 326.91 7.70215H332.002V8.81348H326.91C325.877 8.81348 325.037 9.65384 325.037 10.6924V15.8008H323.93V10.6924C323.93 9.65543 323.092 8.81348 322.057 8.81348H316.965V7.70215H322.057C323.09 7.70215 323.93 6.86178 323.93 5.82324V0.714844H325.037V5.82324ZM289.818 5.74316C289.818 6.78012 290.656 7.62207 291.691 7.62207H296.783V8.7334H291.691C290.658 8.7334 289.818 9.57376 289.818 10.6123V15.7207H288.711V10.6123C288.711 9.57535 287.873 8.7334 286.838 8.7334H281.746V7.62207H286.838C287.871 7.62207 288.711 6.7817 288.711 5.74316V0.634766H289.818V5.74316ZM254.6 5.66309C254.6 6.70004 255.437 7.54199 256.473 7.54199H261.564V8.65332H256.473C255.439 8.65332 254.6 9.49369 254.6 10.5322V15.6406H253.492V10.5322C253.492 9.49527 252.654 8.65332 251.619 8.65332H246.527V7.54199H251.619C252.653 7.54199 253.492 6.70163 253.492 5.66309V0.554688H254.6V5.66309ZM219.381 5.58496C219.381 6.6219 220.219 7.46387 221.254 7.46387H226.346V8.5752H221.254C220.22 8.5752 219.381 9.41556 219.381 10.4541V15.5625H218.273V10.4541C218.273 9.41715 217.436 8.5752 216.4 8.5752H211.309V7.46387H216.4C217.434 7.46387 218.273 6.62349 218.273 5.58496V0.476562H219.381V5.58496ZM184.162 5.50488C184.162 6.54184 185 7.38379 186.035 7.38379H191.127V8.49512H186.035C185.002 8.49512 184.162 9.33548 184.162 10.374V15.4824H183.055V10.374C183.055 9.33707 182.217 8.49512 181.182 8.49512H176.09V7.38379H181.182C182.215 7.38379 183.055 6.54342 183.055 5.50488V0.396484H184.162V5.50488ZM148.943 5.4248C148.943 6.46176 149.781 7.30371 150.816 7.30371H155.908V8.41504H150.816C149.783 8.41504 148.943 9.2554 148.943 10.2939V15.4023H147.836V10.2939C147.836 9.25699 146.998 8.41504 145.963 8.41504H140.871V7.30371H145.963C146.996 7.30371 147.836 6.46335 147.836 5.4248V0.316406H148.943V5.4248ZM113.729 5.34668C113.729 6.38363 114.566 7.22559 115.602 7.22559H120.693V8.33691H115.602C114.568 8.33691 113.729 9.17728 113.729 10.2158V15.3242H112.621V10.2158C112.621 9.17887 111.783 8.33691 110.748 8.33691H105.656V7.22559H110.748C111.782 7.22559 112.621 6.38522 112.621 5.34668V0.238281H113.729V5.34668ZM78.5098 5.2666C78.5098 6.30355 79.3476 7.14551 80.3828 7.14551H85.4746V8.25684H80.3828C79.3492 8.25684 78.5098 9.0972 78.5098 10.1357V15.2441H77.4023V10.1357C77.4023 9.09879 76.5645 8.25684 75.5293 8.25684H70.4375V7.14551H75.5293C76.5629 7.14551 77.4023 6.30514 77.4023 5.2666V0.158203H78.5098V5.2666ZM43.291 5.18848C43.291 6.22543 44.1289 7.06738 45.1641 7.06738H50.2559V8.17871H45.1641C44.1305 8.17871 43.291 9.01908 43.291 10.0576V15.166H42.1836V10.0576C42.1836 9.02067 41.3457 8.17871 40.3105 8.17871H35.2188V7.06738H40.3105C41.3441 7.06738 42.1836 6.22702 42.1836 5.18848V0.0800781H43.291V5.18848ZM8.07227 5.1084C8.07227 6.14535 8.91014 6.9873 9.94531 6.9873H15.0371V8.09863H9.94531C8.91172 8.09863 8.07227 8.939 8.07227 9.97754V15.0859H6.96484V9.97754C6.96484 8.94059 6.12697 8.09863 5.0918 8.09863H0V6.9873H5.0918C6.12539 6.9873 6.96484 6.14694 6.96484 5.1084V0H8.07227V5.1084Z" fill="url(#paint0_radial_7364_3757)"/>
<defs>
<radialGradient id="paint0_radial_7364_3757" cx="0" cy="0" r="1" gradientUnits="userSpaceOnUse" gradientTransform="translate(166.001 156.413) rotate(90) scale(155.227 165.369)">
<stop stop-color="#306D62"/>
<stop offset="1" stop-color="#306D62" stop-opacity="0"/>
</radialGradient>
</defs>
</svg>
