<svg width="1440" height="910" viewBox="0 0 1440 910" fill="none" xmlns="http://www.w3.org/2000/svg">
<path fill-rule="evenodd" clip-rule="evenodd" d="M284.141 0L151.611 73.5L15.7407 41.21L284.141 0Z" fill="#00CE67"/>
<path d="M18.3477 41.3154L151.538 72.9678L281.454 0.917969L18.3477 41.3154Z" stroke="#003A2F" stroke-opacity="0.2"/>
<path fill-rule="evenodd" clip-rule="evenodd" d="M151.611 73.5L152.721 149.23L284.141 0L151.611 73.5Z" fill="#008E39"/>
<path d="M152.115 73.792L153.202 147.927L281.855 1.83887L152.115 73.792Z" stroke="#003A2F" stroke-opacity="0.2"/>
<path fill-rule="evenodd" clip-rule="evenodd" d="M284.141 0L203.821 91.21L152.721 149.23L188.361 84.64L284.141 0Z" fill="#006B2B"/>
<path d="M188.759 84.9551L155.367 145.469L203.445 90.8799L278.49 5.66113L188.759 84.9551Z" stroke="#003A2F" stroke-opacity="0.2"/>
<path fill-rule="evenodd" clip-rule="evenodd" d="M284.14 0L322 141.44L188.36 84.64L284.14 0Z" fill="#00CE67"/>
<path d="M189.286 84.4893L321.252 140.578L283.866 0.90918L189.286 84.4893Z" stroke="#003A2F" stroke-opacity="0.2"/>
<path fill-rule="evenodd" clip-rule="evenodd" d="M798.186 465.888C493.064 455.307 155.667 383.698 149.564 154C98.2479 204.154 -70.0171 378.357 -93 592.537V910H1440V687.275C1440 580.537 1356.18 492.609 1249.57 487.503L798.186 465.888Z" fill="#051915"/>
<path d="M149.099 155.156C123.118 180.601 68.861 236.287 18.0723 312.037C-33.2522 388.586 -81.0153 485.595 -92.5 592.563V909.5H1439.5V687.274C1439.5 580.804 1355.89 493.096 1249.54 488.003L798.17 466.387L798.169 466.388C645.587 461.096 484.891 440.546 361.562 392.579C238.651 344.775 152.696 269.667 149.099 155.156Z" stroke="#003A2F" stroke-opacity="0.2"/>
</svg>
