<svg width="1440" height="910" viewBox="0 0 1440 910" fill="none" xmlns="http://www.w3.org/2000/svg">
<path d="M1511.52 456.053C1512.29 458.275 1513.05 460.502 1513.79 462.732L1513.31 462.89C1514.05 465.124 1514.77 467.363 1515.48 469.605L1515.95 469.456C1516.65 471.701 1517.34 473.949 1518.01 476.2L1517.53 476.342C1518.2 478.6 1518.84 480.862 1519.47 483.126L1519.95 482.992C1520.58 485.26 1521.19 487.53 1521.78 489.803V489.804L1521.3 489.93C1521.89 492.208 1522.46 494.489 1523.01 496.772L1523.5 496.655C1524.05 498.945 1524.58 501.236 1525.08 503.53L1524.6 503.639C1524.85 504.767 1525.09 505.896 1525.33 507.025V510.457H1525.83V517.427H1525.33V524.396H1525.83V531.366H1525.33V538.336H1525.83V545.306H1525.33V552.275H1525.83V559.244H1525.33V566.214H1525.83V573.184H1525.33V580.153H1525.83V587.123H1525.33V594.093H1525.83V601.062H1525.33V608.032H1525.83V615.001H1525.33V621.971H1525.83V628.94H1525.33V635.91H1525.83V642.88H1525.33V649.85H1525.83V656.819H1525.33V663.789H1525.83V670.759H1525.33V677.728H1525.83V684.697H1525.33V691.667H1525.83V698.637H1525.33V705.606H1525.83V712.576H1525.33V719.546H1525.83V726.516H1525.33V729.5H1522.34V730H1515.36V729.5H1508.38V730H1501.4V729.5H1494.42V730H1487.44V729.5H1480.46V730H1473.48V729.5H1466.5V730H1459.52V729.5H1452.54V730H1445.56V729.5H1438.58V730H1431.6V729.5H1424.62V730H1417.64V729.5H1410.66V730H1403.68V729.5H1396.7V730H1389.72V729.5H1382.74V730H1375.76V729.5H1368.78V730H1361.8V729.5H1354.82V730H1347.84V729.5H1340.86V730H1333.88V729.5H1326.9V730H1319.92V729.5H1312.94V730H1305.96V729.5H1298.98V730H1292V729.5H1285.02V730H1278.04V729.5H1271.06V730H1264.08V729.5H1257.1V730H1250.12V729.5H1243.14V730H1236.16V729.5H1229.18V730H1222.21V729.5H1215.22V730H1208.25V729.5H1201.26V730H1194.29V729.5H1187.3V730H1180.33V729.5H1173.34V730H1166.37V729.5H1159.39V730H1152.41V729.5H1145.43V730H1138.45V729.5H1131.47V730H1124.49V729.5H1117.51V730H1110.53V729.5H1103.55V730H1096.57V729.5H1089.59V730H1082.61V729.5H1075.63V730H1068.65V729.5H1061.67V730H1054.69V729.5H1047.71V730H1040.73V729.5H1033.75V730H1026.77V729.5H1019.79V730H1012.81V729.5H1005.83V730H998.848V729.5H991.867V730H984.888V729.5H977.907V730H970.928V729.5H963.947V730H956.968V729.5H949.988V730H943.008V729.5H936.028V730H929.048V729.5H922.068V730H915.088V729.5H908.108V730H901.128V729.5H894.148V730H887.169V729.5H880.188V730H873.209V729.5H866.229V730H859.249V729.5H852.269V730H845.289V729.5H838.31V730H831.329V729.5H824.35V730H817.369V729.5H810.39V730H803.409V729.5H796.43V730H789.449V729.5H782.47V730H775.49V729.5H768.51V730H761.53V729.5H754.55V730H747.57V729.5H744.377L742.863 726.732L742.424 726.972L739.113 720.916L739.553 720.677L736.242 714.62L735.803 714.86L732.492 708.805L732.932 708.564L729.621 702.509L729.182 702.749L725.871 696.693L726.311 696.453L723 690.397L722.562 690.637H722.561L719.25 684.581L719.689 684.342L716.379 678.285L715.939 678.525L712.629 672.47L713.068 672.229L709.758 666.174L709.318 666.414L706.008 660.357L706.447 660.118L703.137 654.062L702.697 654.301L699.387 648.245L699.826 648.007L696.516 641.95L696.076 642.189L692.766 636.134L693.205 635.895L689.894 629.839L689.455 630.078L686.145 624.022L686.583 623.783L683.272 617.728L682.833 617.967L679.522 611.911L679.962 611.672L676.651 605.615L676.213 605.854L672.902 599.799L673.341 599.56L670.03 593.504L669.592 593.743L666.281 587.688L666.72 587.448L663.409 581.393L662.97 581.632L659.659 575.576L660.099 575.337L656.788 569.28L656.349 569.521L653.038 563.465L653.478 563.225L650.167 557.169L649.728 557.409L646.417 551.354L646.856 551.113L643.546 545.058L643.107 545.297H643.106L639.796 539.24L640.235 539.002L636.925 532.945L636.485 533.185L633.175 527.129L633.614 526.89L630.304 520.834L629.864 521.073L626.554 515.018L626.992 514.778L623.682 508.723L623.243 508.961L619.933 502.905L620.371 502.667L617.061 496.61L616.622 496.85L613.312 490.794L613.75 490.555L612.405 488.096L615.143 487.419L615.022 486.934L615.021 486.933L621.754 485.267L621.755 485.268L621.875 485.753L628.607 484.087L628.487 483.602L628.486 483.601L635.22 481.935L635.34 482.42L642.072 480.754L641.952 480.269L648.684 478.602L648.685 478.603L648.805 479.088L655.538 477.422L655.418 476.937L655.417 476.936L662.15 475.27L662.271 475.755L669.003 474.089L668.883 473.604L668.882 473.603L675.614 471.937L675.615 471.938L675.735 472.423L682.468 470.757L682.348 470.271L682.347 470.271L689.08 468.604L689.2 469.09L695.933 467.424L695.812 466.938L702.544 465.271L702.545 465.272L702.665 465.758L709.397 464.091L709.277 463.605L716.01 461.939L716.13 462.425L722.862 460.759L722.742 460.273L729.475 458.607L729.595 459.093L732.879 458.279C734.004 458.39 735.13 458.498 736.256 458.601L736.301 458.103V458.101C738.607 458.311 740.915 458.505 743.223 458.682V458.684L743.185 459.182C745.495 459.359 747.807 459.519 750.119 459.663L750.149 459.164V459.162C752.46 459.306 754.771 459.433 757.083 459.544V459.545L757.059 460.045C759.374 460.156 761.69 460.249 764.006 460.327L764.023 459.828V459.826C766.337 459.904 768.651 459.965 770.965 460.011V460.013L770.955 460.513C773.272 460.558 775.589 460.587 777.905 460.601L777.908 460.101V460.098C780.223 460.111 782.538 460.11 784.853 460.091L784.854 460.092L784.857 460.592C787.174 460.573 789.491 460.539 791.808 460.488L791.797 459.988L791.796 459.985C794.11 459.935 796.424 459.87 798.737 459.788L798.738 459.79L798.756 460.29C801.072 460.208 803.387 460.111 805.701 459.998L805.677 459.498L805.676 459.496C807.988 459.383 810.3 459.257 812.61 459.113L812.611 459.114L812.642 459.613C814.954 459.47 817.266 459.312 819.577 459.138L819.54 458.639L819.539 458.637C821.847 458.463 824.154 458.275 826.46 458.071L826.461 458.073L826.505 458.571C828.813 458.367 831.119 458.148 833.425 457.914L833.374 457.417L833.373 457.415C835.676 457.182 837.978 456.933 840.278 456.67L840.279 456.673L840.337 457.169C842.639 456.906 844.939 456.628 847.237 456.336L847.174 455.84L847.173 455.839C849.469 455.547 851.764 455.24 854.057 454.919L854.058 454.921L854.127 455.416C856.422 455.095 858.714 454.76 861.005 454.41L860.93 453.916L860.929 453.915C863.217 453.566 865.503 453.202 867.787 452.824L867.788 452.826L867.87 453.319C870.156 452.942 872.44 452.55 874.721 452.145L874.633 451.652C876.912 451.247 879.188 450.826 881.462 450.394L881.463 450.396L881.557 450.887C883.833 450.454 886.106 450.006 888.377 449.546L888.277 449.056C890.546 448.596 892.811 448.121 895.074 447.634L895.075 447.636L895.181 448.124C897.446 447.637 899.708 447.136 901.967 446.622L901.856 446.135L901.855 446.134C904.113 445.62 906.367 445.093 908.618 444.553L908.619 444.555L908.735 445.04C910.989 444.5 913.239 443.946 915.485 443.38L915.363 442.896L915.362 442.895C917.607 442.329 919.848 441.749 922.086 441.157L922.087 441.158L922.215 441.642C924.455 441.049 926.691 440.444 928.924 439.826L928.79 439.345L928.789 439.343C931.021 438.725 933.249 438.096 935.474 437.453L935.475 437.454L935.613 437.935C937.839 437.291 940.061 436.636 942.279 435.968L942.136 435.489L942.135 435.487C944.351 434.82 946.563 434.14 948.771 433.448L948.772 433.449L948.922 433.927C951.134 433.234 953.342 432.528 955.545 431.811L955.39 431.335L955.389 431.333C957.59 430.616 959.788 429.888 961.98 429.147L961.981 429.148L962.142 429.622C964.336 428.88 966.527 428.127 968.712 427.361L968.546 426.89L968.545 426.888C969.871 426.423 971.196 425.956 972.519 425.483L975.091 424.558L975.261 425.027C977.44 424.237 979.614 423.436 981.783 422.623L981.608 422.155L981.607 422.153C983.775 421.341 985.937 420.518 988.094 419.683L988.095 419.684L988.275 420.15C990.437 419.313 992.594 418.465 994.745 417.605L994.56 417.141L994.559 417.139C996.71 416.279 998.856 415.409 1001 414.527L1001 414.528L1001.19 414.99C1003.33 414.108 1005.47 413.214 1007.6 412.31L1007.4 411.85L1007.4 411.849C1009.53 410.944 1011.66 410.027 1013.78 409.101L1013.78 409.102L1013.98 409.56C1016.1 408.631 1018.22 407.691 1020.34 406.74L1020.13 406.284L1020.13 406.283C1022.24 405.334 1024.35 404.373 1026.45 403.402L1026.45 403.403L1026.66 403.857C1028.76 402.885 1030.86 401.901 1032.95 400.907L1032.73 400.456L1032.73 400.455C1034.83 399.46 1036.91 398.453 1039 397.437L1039 397.438L1039.21 397.888C1041.3 396.871 1043.37 395.844 1045.44 394.807L1045.22 394.359C1047.29 393.322 1049.35 392.272 1051.4 391.215L1051.41 391.217L1051.63 391.661C1053.7 390.599 1055.76 389.527 1057.81 388.445L1057.57 388.003L1057.57 388.002C1059.62 386.921 1061.66 385.829 1063.69 384.729L1063.69 384.73L1063.93 385.17C1065.97 384.068 1068 382.955 1070.02 381.833L1069.78 381.396L1069.78 381.395C1071.06 380.684 1072.34 379.971 1073.61 379.253L1075.84 377.989L1076.09 378.424C1078.11 377.278 1080.11 376.122 1082.11 374.957L1081.86 374.525L1081.86 374.523C1083.86 373.359 1085.85 372.187 1087.83 371.004L1087.83 371.005L1088.09 371.434C1090.08 370.243 1092.07 369.043 1094.05 367.834L1093.79 367.407L1093.79 367.405C1095.77 366.197 1097.74 364.98 1099.7 363.754L1099.7 363.755L1099.96 364.179C1101.92 362.951 1103.88 361.715 1105.82 360.47L1105.55 360.049C1107.51 358.796 1109.45 357.532 1111.39 356.262L1111.39 356.264L1111.67 356.682C1113.61 355.41 1115.54 354.129 1117.46 352.84L1117.18 352.425L1117.18 352.424C1119.1 351.136 1121.01 349.839 1122.91 348.534L1122.92 348.535L1123.2 348.947C1125.12 347.631 1127.02 346.307 1128.92 344.974L1128.63 344.564L1128.63 344.562C1130.53 343.23 1132.42 341.889 1134.3 340.54L1134.3 340.541L1134.59 340.947C1136.47 339.597 1138.34 338.238 1140.2 336.871L1139.9 336.469L1139.9 336.468C1141.77 335.091 1143.63 333.706 1145.49 332.312L1145.49 332.313L1145.79 332.713C1147.64 331.318 1149.49 329.914 1151.32 328.503L1151.02 328.106L1151.01 328.105C1152.85 326.696 1154.67 325.278 1156.48 323.853L1156.48 323.854L1156.79 324.246C1158.62 322.806 1160.43 321.358 1162.24 319.902L1161.93 319.514L1161.92 319.512C1163.73 318.056 1165.53 316.594 1167.31 315.123L1167.31 315.124L1167.63 315.51C1169.41 314.038 1171.19 312.559 1172.95 311.072L1172.62 310.69L1172.62 310.689C1174.4 309.188 1176.17 307.679 1177.92 306.163L1177.92 306.165L1178.25 306.543C1180.01 305.025 1181.75 303.5 1183.49 301.968L1183.15 301.593L1183.15 301.592C1184.88 300.061 1186.6 298.523 1188.31 296.978L1188.31 296.979L1188.64 297.35C1190.37 295.784 1192.09 294.212 1193.79 292.633L1193.45 292.267L1193.45 292.266C1195.15 290.688 1196.83 289.103 1198.51 287.512L1198.51 287.513L1198.85 287.875C1200.53 286.28 1202.2 284.678 1203.85 283.07L1203.5 282.712L1203.5 282.711C1205.16 281.085 1206.82 279.453 1208.46 277.814L1208.81 278.169C1210.45 276.529 1212.08 274.882 1213.69 273.229L1213.34 272.88L1213.34 272.879C1214.95 271.221 1216.56 269.557 1218.14 267.888L1218.15 267.89L1218.51 268.234C1220.11 266.545 1221.71 264.85 1223.28 263.148L1222.91 262.809L1222.91 262.808C1224.49 261.108 1226.05 259.403 1227.59 257.691L1227.59 257.692L1227.96 258.027C1229.52 256.303 1231.06 254.572 1232.58 252.836L1232.21 252.507L1232.2 252.506C1233.74 250.756 1235.26 249.002 1236.76 247.241L1236.76 247.242L1237.14 247.567C1238.65 245.805 1240.13 244.037 1241.61 242.265L1241.22 241.945L1241.22 241.944C1242.7 240.154 1244.17 238.359 1245.62 236.559L1246.01 236.872C1247.47 235.06 1248.92 233.242 1250.34 231.42L1249.95 231.112L1249.95 231.111C1251.37 229.291 1252.77 227.465 1254.16 225.635L1254.16 225.636L1254.56 225.938C1255.97 224.075 1257.36 222.208 1258.74 220.337L1258.33 220.041C1259.71 218.17 1261.06 216.293 1262.39 214.413L1262.4 214.414L1262.8 214.703C1264.15 212.812 1265.47 210.916 1266.77 209.017L1266.36 208.734L1266.36 208.733C1267.68 206.811 1268.98 204.883 1270.25 202.952L1270.26 202.953L1270.67 203.229C1271.95 201.295 1273.21 199.358 1274.45 197.417L1274.03 197.147L1274.03 197.146C1275.28 195.185 1276.51 193.221 1277.72 191.252L1278.15 191.514C1279.36 189.529 1280.56 187.54 1281.74 185.548L1281.3 185.294L1281.3 185.293C1282.48 183.302 1283.63 181.308 1284.76 179.311L1284.76 179.312L1285.19 179.558C1286.34 177.521 1287.47 175.48 1288.58 173.438L1288.14 173.199L1288.14 173.198C1289.24 171.158 1290.32 169.114 1291.37 167.068L1291.37 167.07L1291.82 167.3C1292.27 166.425 1292.71 165.549 1293.16 164.673C1293.99 165.099 1294.85 165.554 1295.73 166.041L1295.97 165.605C1297.89 166.672 1299.92 167.88 1302.04 169.226L1301.77 169.646C1303.65 170.84 1305.6 172.144 1307.62 173.553L1307.91 173.145C1309.76 174.435 1311.67 175.812 1313.62 177.276V177.277L1313.33 177.678C1315.15 179.039 1317.01 180.475 1318.92 181.983L1319.23 181.592C1321.03 183.018 1322.87 184.51 1324.75 186.063L1324.43 186.447C1326.19 187.905 1327.98 189.419 1329.8 190.986L1330.12 190.608C1331.86 192.105 1333.62 193.649 1335.41 195.243L1335.07 195.616C1336.8 197.158 1338.55 198.745 1340.32 200.376L1340.66 200.009C1342.36 201.577 1344.08 203.186 1345.81 204.835L1345.47 205.196C1347.14 206.783 1348.83 208.408 1350.53 210.067L1350.88 209.709C1352.55 211.34 1354.24 213.007 1355.93 214.707L1355.58 215.061C1357.21 216.692 1358.85 218.355 1360.5 220.049L1360.86 219.7C1362.49 221.368 1364.13 223.065 1365.77 224.792L1365.41 225.137C1367.02 226.821 1368.63 228.532 1370.25 230.271L1370.61 229.93C1372.2 231.631 1373.79 233.359 1375.39 235.111L1375.02 235.447C1376.6 237.175 1378.18 238.927 1379.77 240.702L1380.14 240.37C1381.69 242.103 1383.24 243.859 1384.79 245.637L1384.42 245.965C1385.97 247.729 1387.51 249.516 1389.06 251.323L1389.44 250.999C1390.95 252.763 1392.47 254.547 1393.99 256.352L1393.61 256.673C1395.12 258.47 1396.63 260.286 1398.14 262.122L1398.53 261.806C1400.01 263.601 1401.49 265.413 1402.97 267.244L1402.58 267.559C1404.06 269.385 1405.54 271.229 1407.01 273.091L1407.4 272.78C1408.85 274.606 1410.3 276.448 1411.74 278.307L1411.35 278.614C1412.79 280.468 1414.23 282.338 1415.67 284.224L1416.07 283.922C1417.48 285.778 1418.9 287.649 1420.31 289.535L1419.91 289.833C1421.31 291.713 1422.72 293.608 1424.12 295.517L1424.52 295.223C1425.9 297.109 1427.28 299.008 1428.66 300.922L1428.25 301.213C1429.62 303.118 1430.99 305.036 1432.35 306.968L1432.75 306.681C1434.1 308.596 1435.45 310.525 1436.79 312.466L1436.38 312.749C1437.71 314.679 1439.04 316.621 1440.36 318.575L1440.77 318.295C1442.09 320.239 1443.39 322.195 1444.7 324.163L1444.28 324.439C1445.57 326.394 1446.86 328.36 1448.14 330.337L1448.56 330.066C1449.84 332.038 1451.11 334.022 1452.37 336.016L1451.95 336.283C1453.21 338.262 1454.46 340.252 1455.7 342.252L1456.12 341.989C1457.36 343.989 1458.59 345.999 1459.81 348.02L1459.39 348.277C1460.6 350.282 1461.81 352.296 1463 354.319L1463.43 354.064C1464.63 356.089 1465.82 358.125 1467 360.168L1466.57 360.417C1467.74 362.448 1468.9 364.488 1470.06 366.537L1470.49 366.293C1471.64 368.342 1472.79 370.4 1473.92 372.466L1473.48 372.705C1474.61 374.764 1475.73 376.83 1476.84 378.905L1477.28 378.67C1478.39 380.744 1479.49 382.825 1480.57 384.914L1480.13 385.145C1481.21 387.23 1482.29 389.323 1483.35 391.423L1483.79 391.198C1484.85 393.297 1485.9 395.403 1486.93 397.517L1486.49 397.735C1487.52 399.846 1488.55 401.964 1489.55 404.089L1490 403.875C1491.01 405.999 1492.01 408.129 1493 410.267L1492.54 410.476C1493.52 412.611 1494.49 414.753 1495.45 416.9L1495.9 416.697C1496.86 418.848 1497.8 421.005 1498.73 423.167L1498.27 423.363C1499.2 425.523 1500.11 427.69 1501.01 429.861L1501.47 429.67C1502.37 431.846 1503.25 434.027 1504.12 436.213L1503.66 436.397C1504.53 438.583 1505.38 440.773 1506.22 442.968L1506.68 442.789C1507.52 444.989 1508.34 447.193 1509.15 449.402L1508.68 449.573C1509.49 451.783 1510.28 453.998 1511.05 456.217L1511.52 456.053Z" stroke="white" stroke-opacity="0.2" stroke-dasharray="7 7"/>
<path d="M1163.05 75.1387L1163.04 75.6387L1169.97 75.7314L1169.97 75.2314L1176.9 75.3242L1176.9 75.8242L1183.82 75.917L1183.83 75.417L1190.75 75.5098L1190.75 76.0098L1197.68 76.1025L1197.68 75.6025L1204.61 75.6953L1204.6 76.1953L1211.53 76.2881L1211.54 75.7881L1218.46 75.8809L1218.46 76.3809L1225.38 76.4736L1225.39 75.9736L1232.32 76.0664L1232.31 76.5664L1239.24 76.6592L1239.24 76.1592L1246.17 76.252L1246.17 76.752L1253.09 76.8447L1253.1 76.3447L1260.02 76.4375L1260.02 76.9375L1266.95 77.0303L1266.95 76.5303L1273.88 76.623L1273.87 77.123L1280.8 77.2158L1280.8 76.7158L1287.73 76.8086L1287.73 77.3086L1294.65 77.4014L1294.66 76.9014V76.9004L1301.59 76.9932L1301.58 77.4941L1308.51 77.5869L1308.51 77.0859L1315.44 77.1787L1315.43 77.6797L1322.36 77.7725L1322.37 77.2725V77.2715L1329.29 77.3643V77.3652L1329.29 77.8652L1336.21 77.958L1336.22 77.457L1343.15 77.5498L1343.14 78.0508L1350.07 78.1436L1350.08 77.6426L1357 77.7354V77.7363L1357 78.2363L1363.92 78.3291L1363.93 77.8291V77.8281L1370.86 77.9209V77.9219L1370.85 78.4219L1377.78 78.5146L1377.78 78.0137L1384.71 78.1064L1384.7 78.6074L1391.63 78.7002L1391.64 78.2002V78.1992L1398.56 78.292V78.293L1398.56 78.793L1405.48 78.8857L1405.49 78.3857V78.3848L1412.42 78.4775L1412.41 78.9785L1419.34 79.0713L1419.34 78.5703L1426.27 78.6631V78.6641L1426.27 78.9893L1426.16 79.0146L1426.27 79.501L1419.35 81.0859L1419.23 80.5986L1412.31 82.1826L1412.42 82.6699L1405.49 84.2529L1405.38 83.7666L1398.46 85.3506L1398.57 85.8379L1391.64 87.4219L1391.53 86.9346L1384.6 88.5186L1384.71 89.0049L1377.79 90.5898L1377.68 90.1025L1370.75 91.6865L1370.86 92.1738L1363.93 93.7568L1363.82 93.2705L1356.9 94.8545L1357.01 95.3418L1350.08 96.9258L1349.97 96.4385L1343.04 98.0225L1343.15 98.5088L1336.23 100.094L1336.12 99.6064L1329.19 101.19L1329.3 101.678L1322.38 103.261L1322.26 102.774L1315.34 104.358L1315.45 104.846L1308.52 106.43L1308.41 105.942L1301.49 107.526L1301.6 108.013L1294.67 109.598L1294.56 109.11L1291.1 109.902L1290.7 109.994L1290.71 110.403L1290.82 114.396L1291.32 114.381L1291.54 122.364V122.365L1291.04 122.379L1291.26 130.362L1291.76 130.348L1291.98 138.332H1291.98L1291.48 138.346L1291.7 146.329L1292.2 146.315V146.314L1292.42 154.297V154.298L1291.92 154.312L1292 157.395L1290.06 156.241L1289.81 156.671L1284.37 153.433H1284.37L1284.63 153.003L1279.19 149.766L1278.93 150.194L1273.49 146.956L1273.75 146.527L1268.31 143.289L1268.06 143.719L1262.62 140.48L1262.87 140.052L1257.44 136.813L1257.18 137.243L1251.74 134.005L1252 133.575L1246.56 130.337L1246.3 130.767H1246.3L1240.87 127.529L1241.12 127.1L1238.4 125.48L1238.2 125.361L1237.98 125.438L1234.66 126.591L1234.82 127.063L1228.17 129.37L1228 128.898L1221.35 131.206L1221.51 131.678L1214.86 133.985L1214.69 133.513L1208.04 135.82L1208.2 136.292L1201.55 138.6L1201.38 138.127L1194.73 140.435L1194.89 140.906L1188.24 143.214L1188.07 142.742L1181.42 145.049L1181.58 145.521L1174.93 147.828L1174.76 147.356L1168.11 149.663L1168.27 150.136L1161.62 152.442L1161.46 151.971L1154.8 154.278L1154.96 154.75L1148.31 157.058L1148.15 156.585L1141.49 158.893L1141.65 159.364L1135 161.672L1134.84 161.199L1128.18 163.507L1128.34 163.979L1121.69 166.286L1121.53 165.814L1119.2 166.62L1120.06 164.312L1119.59 164.139L1122.04 157.535L1122.51 157.71L1124.96 151.106L1124.49 150.933L1126.94 144.33L1127.41 144.504L1129.86 137.901L1129.39 137.727L1131.84 131.124L1132.3 131.298L1134.75 124.695L1134.29 124.521L1136.73 117.918L1137.2 118.093L1139.65 111.489L1139.18 111.315L1141.63 104.712L1142.1 104.887L1144.55 98.2842L1144.08 98.1104L1144.08 98.1094L1146.53 91.5068L1147 91.6807L1149.45 85.0781L1148.98 84.9033L1151.43 78.3008L1151.43 78.3018L1151.9 78.4756L1153 75.5039L1156.11 75.5459L1156.12 75.0459L1163.05 75.1387Z" stroke="white" stroke-opacity="0.2" stroke-dasharray="7 7"/>
<path fill-rule="evenodd" clip-rule="evenodd" d="M1155.86 0L1288.39 73.5L1424.26 41.21L1155.86 0Z" fill="#00CE67"/>
<path fill-rule="evenodd" clip-rule="evenodd" d="M1288.39 73.5L1287.28 149.23L1155.86 0L1288.39 73.5Z" fill="#008E39"/>
<path fill-rule="evenodd" clip-rule="evenodd" d="M1155.86 0L1236.18 91.21L1287.28 149.23L1251.64 84.64L1155.86 0Z" fill="#006B2B"/>
<path fill-rule="evenodd" clip-rule="evenodd" d="M1155.86 0L1118 141.44L1251.64 84.64L1155.86 0Z" fill="#00CE67"/>
<path fill-rule="evenodd" clip-rule="evenodd" d="M641.814 465.888C946.936 455.307 1284.33 383.698 1290.44 154C1341.75 204.154 1510.02 378.357 1533 592.537V910H0V687.275C0 580.537 83.8178 492.609 190.433 487.503L641.814 465.888Z" fill="white"/>
</svg>
